<svg xmlns="http://www.w3.org/2000/svg" xmlns:xlink="http://www.w3.org/1999/xlink" viewBox="0 0 215.76 190.01"><defs><style>.cls-1{fill:none;}.cls-2{clip-path:url(#clip-path);}.cls-3{fill:#fdfdfd;}.cls-4{fill:#202020;}.cls-5{fill:#929292;}.cls-6{fill:#d60000;}.cls-14,.cls-7{font-size:9.74px;}.cls-7{font-family:TimesNewRomanPSMT, Times New Roman;}.cls-8{letter-spacing:0em;}.cls-9{fill:#fff;}.cls-10,.cls-13,.cls-9{fill-rule:evenodd;}.cls-11{fill:#005272;}.cls-12,.cls-13{fill:#8c0000;}.cls-14{font-family:TimesNewRomanPS-BoldMT, Times New Roman;font-weight:700;}.cls-15{letter-spacing:0em;}</style><clipPath id="clip-path"><rect class="cls-1" x="4.68" y="1.08" width="159.78" height="125.4"/></clipPath></defs><title>Asset 1</title><g id="Layer_2" data-name="Layer 2"><g id="Layer_3" data-name="Layer 3"><g class="cls-2"><path class="cls-3" d="M78.29,1.08h86.17v125.4H4.68V15.59c1.35.74.79,2,.86,3Q7.44,47.29,9.23,76c.44,7,.91,13.91,1.38,21.17l55.18-2.62c.83,6,.34,11.71.52,17.56-1.49.12-2.72.24-3.94.33l-23.88,1.71c-3,.21-5.79.78-7.48,3.48-1.31,2.1-.92,3.29,1.74,3.55a38.73,38.73,0,0,0,6.55,0q37.67-2.75,75.32-5.57c3.88-.29,7.77-.54,11.64-1,2.55-.29,3.79-1.88,2.58-3.21-1.59-1.77-3.31-3.54-6.38-3.24-4.44.44-8.9.67-13.36,1l-16.3,1.16v-17l62.22-3a3.38,3.38,0,0,0,.26-2.62c-2.71-26.39-5.48-52.78-8.12-79.18-.22-2.15-1.28-2.47-3.24-2.51q-19-.41-37.92-.93c-2.28-.06-4.79.35-6.25-2.07-.47-.79-1.75-.52-2.68-.56-5.41-.23-10.83-.4-16.24-.67C80,1.6,78.9,2.11,78.29,1.08Z"/><path class="cls-4" d="M78.29,1.08c.61,1,1.7.52,2.54.56,5.41.27,10.83.44,16.24.67.93,0,2.21-.23,2.68.56,1.46,2.42,4,2,6.25,2.07q19,.52,37.92.93c2,0,3,.36,3.24,2.51,2.64,26.4,5.41,52.79,8.12,79.18a3.38,3.38,0,0,1-.26,2.62l-62.22,3v17l16.3-1.16c4.46-.32,8.92-.55,13.36-1,3.07-.3,4.79,1.47,6.38,3.24,1.21,1.33,0,2.92-2.58,3.21-3.87.44-7.76.69-11.64,1Q77,118.37,39.3,121.13a38.73,38.73,0,0,1-6.55,0c-2.66-.26-3.05-1.45-1.74-3.55,1.69-2.7,4.44-3.27,7.48-3.48l23.88-1.71c1.22-.09,2.45-.21,3.94-.33-.18-5.85.31-11.6-.52-17.56L10.61,97.15C10.14,89.89,9.67,82.94,9.23,76Q7.4,47.29,5.54,18.59c-.07-1,.49-2.26-.86-3V10.92c1-.69.75-1.38,0-2.07V3.15c1.81.12,2.85-1.5,4.88-1.42,15.61.64,31.24,1,46.85,1.57,2.49.09,4.4-.46,5.9-2.22h7.42a2.13,2.13,0,0,0,2.86,0Zm75,83.34c-2.69-25.77-5.35-51.34-8-76.93-14.08-.39-27.85-.78-41.62-1.14-.68,0-1.56-.33-1.84.69s-1.32.8-2.11.79c-12.83-.24-25.66-.54-38.5-.72-1.86,0-2.75-.67-2.93-2.25L9.06,3.3c2.26,29.35,4.49,58.34,6.73,87.46Zm-26,28.67.1-.92c-1.37-1.22-2.47-2.76-4.86-2.57-9.84.77-19.7,1.4-29.53,2.3-2.75.25-3.49-.4-3.41-2.84.17-5.15,0-10.31,0-15.68l-20.46.89c0,5.51-.12,10.86.05,16.2.07,2.22-.3,3.41-3.17,3.2a41.47,41.47,0,0,0-6,.41q-11.22.81-22.44,1.63c-2.69.2-4.87,1-5.67,4.4ZM16.37,95.39l137.21-6.63A3.53,3.53,0,0,0,153,86L16.12,92.25A5.41,5.41,0,0,0,16.37,95.39Zm-4.23-.13c1.45.39,2.33.35,2.19-1.13-.09-1-.08-2.07-.16-3.11Q11.38,54.87,8.59,18.73c-.37-4.84-.78-9.68-1.18-14.52L6.3,4.28C8.24,34.55,10.19,64.82,12.14,95.26ZM100.21,6.33c-.75-1.85-1.65-2.53-3.34-2.58Q81.09,3.27,65.33,2.61c-2.36-.1-3.88.81-5.44,2.92Z"/><path class="cls-3" d="M62.31,1.08c-1.5,1.76-3.41,2.31-5.9,2.22C40.8,2.74,25.17,2.37,9.56,1.73c-2-.08-3.07,1.54-4.88,1.42V1.08Z"/><path class="cls-5" d="M72.59,1.08a2.13,2.13,0,0,1-2.86,0Z"/><path class="cls-5" d="M4.68,8.85c.75.69,1,1.38,0,2.07Z"/><path class="cls-3" d="M153.32,84.42,15.79,90.76C13.55,61.64,11.32,32.65,9.06,3.3L58.3,4.86c.18,1.58,1.07,2.22,2.93,2.25,12.84.18,25.67.48,38.5.72.79,0,1.81.31,2.11-.79s1.16-.71,1.84-.69c13.77.36,27.54.75,41.62,1.14C148,33.08,150.63,58.65,153.32,84.42ZM14.05,7.91Q17,48.37,19.86,88.33a7,7,0,0,0,3.5.27Q85,85.81,146.66,83c2.29-.1,2.85-.66,2.63-2.76q-3.45-33-6.64-66c-.24-2.49-1-3.29-3.87-3.36-37.24-.92-74.48-2-111.71-3C22.91,7.82,18.74,7.91,14.05,7.91Z"/><path class="cls-3" d="M127.32,113.09l-95.3,7c.8-3.36,3-4.2,5.67-4.4q11.22-.84,22.44-1.63a41.47,41.47,0,0,1,6-.41c2.87.21,3.24-1,3.17-3.2-.17-5.34-.05-10.69-.05-16.2l20.46-.89c0,5.37.12,10.53,0,15.68-.08,2.44.66,3.09,3.41,2.84,9.83-.9,19.69-1.53,29.53-2.3,2.39-.19,3.49,1.35,4.86,2.57Z"/><path class="cls-3" d="M16.37,95.39a5.41,5.41,0,0,1-.25-3.14L153,86a3.53,3.53,0,0,1,.58,2.81Z"/><path class="cls-3" d="M12.14,95.26c-2-30.44-3.9-60.71-5.84-91l1.11-.07c.4,4.84.81,9.68,1.18,14.52Q11.4,54.88,14.17,91c.08,1,.07,2.07.16,3.11C14.47,95.61,13.59,95.65,12.14,95.26Z"/><path class="cls-3" d="M100.21,6.33l-40.32-.8c1.56-2.11,3.08-3,5.44-2.92q15.77.66,31.54,1.14C98.56,3.8,99.46,4.48,100.21,6.33Z"/><path class="cls-4" d="M14.05,7.91c4.69,0,8.86-.09,13,0,37.23,1,74.47,2.06,111.71,3,2.85.07,3.63.87,3.87,3.36q3.16,33,6.64,66c.22,2.1-.34,2.66-2.63,2.76Q85,85.77,23.36,88.6a7,7,0,0,1-3.5-.27Q17,48.37,14.05,7.91Zm7.39,79.26,126.23-5.75c-2.33-23.09-4.64-45.93-7-68.86L15.81,9.16Z"/><path class="cls-3" d="M21.44,87.17l-5.63-78,124.9,3.4c2.32,22.93,4.63,45.77,7,68.86Z"/></g><polyline class="cls-6" points="88.06 51.16 79.89 59.28 80.09 59.48 88.2 51.37"/><path d="M98.65,50.05v-.48h.72V45.05h-.72v-.47h2.23a3.6,3.6,0,0,1,.92.1,2.31,2.31,0,0,1,.64.25,1.45,1.45,0,0,1,.38.36,1.51,1.51,0,0,1,.21.39,1.31,1.31,0,0,1,.06.38,1.29,1.29,0,0,1-.24.75,1.65,1.65,0,0,1-.72.55,1.46,1.46,0,0,1,.24.17l.16.16a.57.57,0,0,1,.12.18c0,.08.06.13.07.17a.78.78,0,0,1,0,.21c0,.09,0,.16,0,.2s0,.13,0,.25V49a.74.74,0,0,0,.25.63.46.46,0,0,0,.23.08c.18,0,.29-.1.32-.31l0-.09,0,0s0-.05.07-.05H104s.05,0,.06,0a.25.25,0,0,1,0,.1.93.93,0,0,1-.2.54.67.67,0,0,1-.58.28,1.49,1.49,0,0,1-.36,0,1.41,1.41,0,0,1-.35-.17.87.87,0,0,1-.3-.37,1.5,1.5,0,0,1-.11-.6v-.51a.86.86,0,0,0-.08-.4,1.27,1.27,0,0,0-1.19-.49h-1v2h.71v.48Zm1.29-3h.91q1.16,0,1.47-.51a.85.85,0,0,0,.15-.51.88.88,0,0,0-.53-.83,2.66,2.66,0,0,0-1.11-.18h-.89Z"/><path d="M104.35,48.18a1.92,1.92,0,0,1,.46-1.35,1.49,1.49,0,0,1,1.18-.51,1.73,1.73,0,0,1,.71.14,1.17,1.17,0,0,1,.45.4,1.72,1.72,0,0,1,.21.51,2,2,0,0,1,.07.55.19.19,0,0,1-.06.17.35.35,0,0,1-.16,0H105a2,2,0,0,0,.12.73,1,1,0,0,0,.31.46,1.59,1.59,0,0,0,.43.22,1.72,1.72,0,0,0,.47.07.69.69,0,0,0,.66-.53.33.33,0,0,1,.09-.14.28.28,0,0,1,.16,0h0c.13,0,.2.05.2.15a1,1,0,0,1-.38.65,1.28,1.28,0,0,1-1,.38,1.64,1.64,0,0,1-1.23-.5A1.9,1.9,0,0,1,104.35,48.18Zm.65-.49h2c-.09-.6-.4-.9-1-.9A1,1,0,0,0,105,47.69Z"/><path d="M108,49a1,1,0,0,1,.09-.42,1.25,1.25,0,0,1,.32-.4,1.69,1.69,0,0,1,.7-.32,4.52,4.52,0,0,1,1.13-.14v-.18h0v0c0-.47-.31-.71-.93-.71l-.45,0v0a.3.3,0,0,1-.09.25.33.33,0,0,1-.22.09.29.29,0,0,1-.23-.09.35.35,0,0,1-.08-.24c0-.35.37-.53,1.11-.53a1.62,1.62,0,0,1,1.05.31,1,1,0,0,1,.4.87v1.71a.87.87,0,0,0,0,.18c0,.1.14.15.34.18l.3,0a.3.3,0,0,1,.07.23.23.23,0,0,1-.05.17.3.3,0,0,1-.18,0h-.15c-.46,0-.74-.15-.82-.43a2.22,2.22,0,0,1-1.43.47.75.75,0,0,1-.66-.33A1.28,1.28,0,0,1,108,49Zm.56,0a.55.55,0,0,0,.22.45.79.79,0,0,0,.53.18l.29,0a1.21,1.21,0,0,0,.3-.11.75.75,0,0,0,.25-.25.81.81,0,0,0,.1-.39.13.13,0,0,0,0-.06v-.64a3,3,0,0,0-1.28.26A.67.67,0,0,0,108.58,49Z"/><path d="M111.8,50.05v-.48h.67V45.29c0-.1,0-.16-.08-.18a1.79,1.79,0,0,0-.43,0h-.16V44.6l1.21-.12v5.09h.67v.48Z"/><text class="cls-7" transform="translate(0 8.1)"> </text><text class="cls-7" transform="translate(0 19.26)"> </text><text class="cls-7" transform="translate(0 30.48)"> </text><text class="cls-7" transform="translate(0 41.64)"> </text><text class="cls-7" transform="translate(0 52.8)"> </text><text class="cls-7" transform="translate(0 64.02)"> </text><text class="cls-7" transform="translate(0 75.24)"> </text><text class="cls-7" transform="translate(0 86.34)"> </text><text class="cls-7" transform="translate(0 97.56)"> </text><text class="cls-7" transform="translate(0 108.72)"> </text><text class="cls-7" transform="translate(0 119.94)"> </text><text class="cls-7" transform="translate(0 131.1)"> </text><text class="cls-7" transform="translate(0 142.26)"><tspan class="cls-8"> </tspan><tspan x="2.45" y="0"> </tspan></text><text class="cls-7" transform="translate(0 153.48)"> </text><text class="cls-7" transform="translate(0 164.7)"> </text><text class="cls-7" transform="translate(0 175.8)"> </text><text class="cls-7" transform="translate(0 187.02)"> </text><path class="cls-9" d="M152,114.24c0-18.3,14-33.12,31.38-33.12s31.38,14.82,31.38,33.12-14,33.12-31.38,33.12S152,132.54,152,114.24"/><path class="cls-10" d="M155.7,99.18c2.22-4.56,5.58-7.5,7.38-6.6s1.56,5.34-.72,9.9-5.52,7.44-7.38,6.54-1.5-5.28.72-9.84"/><path class="cls-11" d="M156.18,100.38l-.3.84A12.71,12.71,0,0,0,154.8,107l.12.48v-.12l.18.42-.12-.12.24.36-.12-.18.3.3-.18-.18.3.24-.18-.12.06.06.18.06-.12-.06.36.06h-.18l.42-.06-.18.06.36-.12c3.73-1.43,7.89-10,7-13.86l-.18-.42.06.12-.24-.36.12.18-.24-.3.18.12-.36-.18.18.06h-.06l-.18-.06h-.3l-.3.06c-2,.87-3.92,3.43-4.86,5.34l-.42.78m-1.8-.84.48-.84c1.06-2.1,3.49-5.42,5.82-6.18l.54-.18a.22.22,0,0,1,.18-.06l.42-.06h.18l.42.06a.22.22,0,0,1,.18.06l.18.06.24.06c.06.06.12.06.18.12l.3.18q.18.09.18.18l.3.3c.06,0,.06.06.12.12l.24.36a.22.22,0,0,0,.06.18l.18.42c1.49,4.78-3.45,14.67-8,16.38l-.54.18h-.18l-.42.06h-.6c0-.06-.06-.06-.12-.06l-.18-.06-.3-.12c-.06,0-.12-.06-.18-.06l-.3-.24c-.06,0-.12-.06-.18-.12l-.3-.3c0-.06-.06-.12-.12-.18l-.18-.36c-.06,0-.06-.06-.12-.12l-.12-.42a.19.19,0,0,1-.06-.12l-.12-.48c-.42-2.37.31-4.8,1.08-7l.36-.84Z"/><path d="M153.06,115.86l.12,1.68.18,1.56.3,1.62c2.68,14.36,14.87,25.7,29.76,25.68l1.56-.06,1.5-.12c14.75-1.47,25.89-14.22,27.18-28.68l.12-1.62.06-1.68-.06-1.62-.12-1.68c-1.35-14.53-12.31-27.13-27.12-28.68l-1.5-.12-1.56-.06c-15.67,0-27.82,12.1-30.12,27.24l-.18,1.62-.12,1.62v1.68m-2,0,.06-1.74.12-1.74.18-1.68c2.26-15.41,14.45-28,30.3-28.92l1.68-.06,1.62.06C200.87,81,213.16,93.6,215.4,109l.18,1.74.12,1.68.06,1.8L215.7,116c-.62,15.49-11.74,29.43-27.3,32l-1.62.24-1.68.12c-16.5.86-30.27-11.26-33.36-27.18l-.3-1.68-.18-1.74-.12-1.68Z"/><path d="M91,57.61l-3.06-6.72,7.32.62c.24,0,.38.2.34.38s-.2.39-.38.35l-6.77-.56.37-.53,2.87,6.14a.41.41,0,0,1-.19.5.4.4,0,0,1-.5-.18m65.75,42-68.42-48,.41-.65,68.43,48Z"/><path d="M47.28,154.86l-3.9,6.24,7.38.36a.39.39,0,0,0,.36-.36.45.45,0,0,0-.36-.42l-6.72-.3.3.54,3.6-5.7a.47.47,0,0,0-.12-.48.39.39,0,0,0-.54.12m107.16-52.14L43.86,160.44l.3.66L154.8,103.38Z"/><path class="cls-6" d="M41.7,145.86l-5.34,5,7.08,2.16a.34.34,0,0,0,.42-.24.3.3,0,0,0-.24-.42l-6.42-2,.12.6,4.92-4.68a.37.37,0,0,0,0-.48.34.34,0,0,0-.54,0m117.42-24.3L37,150.42l.12.66L159.3,122.22Z"/><path class="cls-12" d="M155.8,122.14v0c.61,1.74,4.53,1.92,5.4.12l.06-.24-.06.12.06-.12-.06-.24.06.18-.06-.18v-.12a2.78,2.78,0,0,0-2.34-1.2l-.3-.06h-.3l-.6.12-.24.06-.72.24-.36.24-.18.18-.12.06-.06.18-.06.06-.06.12-.06.3v-.06m-1.92.12v-.54l.06-.24c1.16-3.66,7.83-3.67,9.12-.12l.06.36a.22.22,0,0,1,.06.18v.66c0,.06,0,.06-.06.12l-.06.24c-.95,3.71-8,3.69-9.06.12l-.12-.36V122Z"/><path class="cls-13" d="M154.84,122c0-1.38,1.62-2.52,3.66-2.52s3.72,1.14,3.72,2.52-1.68,2.52-3.72,2.52-3.66-1.08-3.66-2.52"/><path d="M29.7,138.06l.3-1.38,27.48,44.4-1.32-.3,21.78-13.5-.3,1.38-27.48-44.4,1.32.3m-1-1.68a1,1,0,0,1,1.32.3l27.48,44.46A.92.92,0,0,1,79,169l-21.78,13.5a1.05,1.05,0,0,1-1.38-.36L28.32,137.7a1,1,0,0,1,.36-1.32Z"/><polyline class="cls-9" points="69.48 130.56 83.46 152.4 71.34 160.14 57.36 138.3"/><path d="M57.9,139.14l.3-1.38,14,21.84-1.38-.3,12.12-7.74-.3,1.38L68.7,131.1l1.32.3m-1-1.68a1,1,0,0,1,1.32.3l14,21.84a1.1,1.1,0,0,1-.3,1.38L71.88,161a1,1,0,0,1-1.38-.3L56.58,138.84a1,1,0,0,1,.24-1.38Z"/><path class="cls-10" d="M182.52,115.26a1.81,1.81,0,0,1,1.86-1.74,1.74,1.74,0,1,1,0,3.48,1.81,1.81,0,0,1-1.86-1.74"/><path d="M183.54,115.5v-.18l.06.3-.06-.18.18.3-.12-.18.24.3-.18-.12.3.18-.18-.06.36.12-.18-.06.3.12-.18-.06.36.06h-.18l.36-.06-.12.06.3-.12-.18.06.3-.12-.12.06.24-.18-.12.12.24-.3-.12.18.18-.3-.12.18.12-.3v-.12l-.06-.3.06.18-.18-.3.12.18-.24-.3.18.18-.3-.24.12.12-.3-.18.18.06-.3-.12.12.06-.36-.06h.18l-.36.06.18-.06-.3.12.18-.06-.36.18.18-.12-.3.24.18-.18-.24.3.12-.18-.18.3.06-.18-.12.3.06-.18v.12m-2,.24v-.24l.06-.3c0-.12,0-.18.06-.24l.06-.3c.06-.06.06-.12.12-.18l.18-.3c0-.06.06-.12.12-.18l.18-.24c.06-.06.12-.12.18-.12l.24-.24a.21.21,0,0,0,.12-.06l.36-.18a.6.6,0,0,1,.18-.06l.3-.12h.18l.36-.06h.18l.42.06H185l.3.12c.06,0,.12.06.18.06l.3.18c.06,0,.12.06.18.06l.24.24c.06,0,.12.06.18.12l.18.24c.06.06.12.12.12.18l.18.3a.22.22,0,0,1,.06.18l.12.3c0,.06.06.12.06.24v.3a.18.18,0,0,1,0,.24v.36c0,.06-.06.12-.06.18l-.12.3a.22.22,0,0,1-.06.18l-.18.3c0,.06-.06.12-.12.18l-.18.24c-.06.06-.12.12-.18.12l-.24.24c-.06,0-.12.06-.18.06l-.3.18c-.06,0-.12.06-.18.06l-.3.12h-.18l-.42.06h-.18l-.36-.06h-.18l-.3-.12a.6.6,0,0,1-.18-.06l-.36-.18a.21.21,0,0,0-.12-.06l-.3-.24c0-.06-.06-.06-.12-.12l-.18-.24c-.06-.06-.12-.12-.12-.18l-.18-.3c-.06-.06-.06-.12-.12-.18l-.06-.3a.22.22,0,0,1-.06-.18Z"/><path d="M82,160.67a2.65,2.65,0,0,1,.74-2,2.51,2.51,0,0,1,1.85-.73,2.13,2.13,0,0,1,1.58.71l.16-.32a1.75,1.75,0,0,1,.18-.33.14.14,0,0,1,.11-.05h0c.07,0,.11.06.11.16v1.72c0,.08,0,.12,0,.14a.5.5,0,0,1-.23,0l-.14,0a.15.15,0,0,1-.05-.1,2.12,2.12,0,0,0-.48-1.05,1.31,1.31,0,0,0-1-.43,2.6,2.6,0,0,0-.74.11,2.37,2.37,0,0,0-.69.35,1.66,1.66,0,0,0-.54.71,3.07,3.07,0,0,0,0,2.23,1.63,1.63,0,0,0,.56.71,2.33,2.33,0,0,0,.69.34,2.65,2.65,0,0,0,.74.11,1.44,1.44,0,0,0,1.47-1.31.37.37,0,0,1,0-.17.24.24,0,0,1,.15,0h.11c.11,0,.17.05.17.14a1.69,1.69,0,0,1-.23.8,2,2,0,0,1-.74.71,2.18,2.18,0,0,1-1.17.32,2.49,2.49,0,0,1-1.88-.75A2.75,2.75,0,0,1,82,160.67Z"/><path d="M87.46,162.31a.93.93,0,0,1,.09-.4,1.33,1.33,0,0,1,.31-.39,1.72,1.72,0,0,1,.68-.32,4.35,4.35,0,0,1,1.1-.12v-.23q0-.69-.9-.69l-.44,0v0a.33.33,0,0,1-.09.25.32.32,0,0,1-.21.08.27.27,0,0,1-.22-.09.31.31,0,0,1-.08-.23c0-.34.36-.52,1.08-.52a1.63,1.63,0,0,1,1,.3,1,1,0,0,1,.38.85s0,0,0,0v1.63a.77.77,0,0,0,0,.18c0,.1.14.15.33.17l.29,0a.27.27,0,0,1,.07.22.25.25,0,0,1,0,.17.37.37,0,0,1-.18,0h-.14c-.45,0-.71-.14-.8-.41a2.18,2.18,0,0,1-1.38.45.74.74,0,0,1-.64-.32A1.26,1.26,0,0,1,87.46,162.31Zm.55,0a.54.54,0,0,0,.21.44.76.76,0,0,0,.51.18,1.43,1.43,0,0,0,.29,0,2.12,2.12,0,0,0,.29-.11.69.69,0,0,0,.24-.24.77.77,0,0,0,.1-.38s0,0,0-.06v-.62a2.85,2.85,0,0,0-1.25.26A.62.62,0,0,0,88,162.29Z"/><path d="M91.13,163.32v-.46h.65V160.5a.19.19,0,0,0-.08-.18,1.62,1.62,0,0,0-.45,0h-.12v-.46l1.15-.1v.52a1.45,1.45,0,0,1,1.15-.52c.52,0,.85.18,1,.56a1.72,1.72,0,0,1,.61-.46,1.42,1.42,0,0,1,.55-.1h0a1.41,1.41,0,0,1,.49.07.91.91,0,0,1,.31.18.73.73,0,0,1,.17.27,1.28,1.28,0,0,1,.07.3,2.88,2.88,0,0,1,0,.32v2h.64v.46H95.45v-.46h.65v-2a.82.82,0,0,0,0-.24.74.74,0,0,0-.08-.22.39.39,0,0,0-.23-.18,1.33,1.33,0,0,0-.44-.06.74.74,0,0,0-.61.28,1.08,1.08,0,0,0-.24.74v1.66h.65v.46H93.3v-.46h.64v-2a1.44,1.44,0,0,0,0-.24.57.57,0,0,0-.09-.22.37.37,0,0,0-.22-.18,1.31,1.31,0,0,0-.43-.06.75.75,0,0,0-.62.28,1.08,1.08,0,0,0-.24.74v1.66H93v.46Z"/><path d="M97.65,161.51a1.92,1.92,0,0,1,.43-1.31,1.48,1.48,0,0,1,1.15-.5,1.63,1.63,0,0,1,.69.14,1.09,1.09,0,0,1,.43.39,1.57,1.57,0,0,1,.21.5,2.33,2.33,0,0,1,.07.53c0,.08,0,.14-.06.16a.33.33,0,0,1-.15,0h-2.2a1.88,1.88,0,0,0,.12.71,1,1,0,0,0,.3.44,1.49,1.49,0,0,0,.41.22,1.76,1.76,0,0,0,.46.06.65.65,0,0,0,.64-.51.29.29,0,0,1,.09-.13.26.26,0,0,1,.15,0h0c.12,0,.19,0,.19.14a1,1,0,0,1-.37.64,1.3,1.3,0,0,1-.93.37,1.63,1.63,0,0,1-1.19-.49A1.85,1.85,0,0,1,97.65,161.51Zm.62-.48h1.89a.87.87,0,0,0-.92-.87A.93.93,0,0,0,98.27,161Z"/><path d="M101.07,163.32v-.46h.64V160.5a.19.19,0,0,0-.08-.18,1.68,1.68,0,0,0-.45,0h-.11v-.46l1.12-.1v.54a1.15,1.15,0,0,1,1-.53.65.65,0,0,1,.4.12.43.43,0,0,1,.15.33.25.25,0,0,1-.08.21.29.29,0,0,1-.21.09.37.37,0,0,1-.2-.07.28.28,0,0,1-.11-.23.86.86,0,0,0-.63.42,1.73,1.73,0,0,0-.23,1v1.31H103v.46Z"/><path d="M104.24,162.31a.93.93,0,0,1,.09-.4,1.33,1.33,0,0,1,.31-.39,1.72,1.72,0,0,1,.68-.32,4.35,4.35,0,0,1,1.1-.12v-.23c0-.46-.29-.69-.89-.69l-.44,0v0a.33.33,0,0,1-.09.25.32.32,0,0,1-.21.08.3.3,0,0,1-.23-.09.35.35,0,0,1-.07-.23c0-.34.36-.52,1.08-.52a1.63,1.63,0,0,1,1,.3,1,1,0,0,1,.38.85s0,0,0,0v1.63a.77.77,0,0,0,0,.18c0,.1.14.15.33.17l.29,0a.27.27,0,0,1,.07.22.25.25,0,0,1,0,.17.37.37,0,0,1-.18,0h-.14c-.45,0-.71-.14-.8-.41a2.2,2.2,0,0,1-1.38.45.74.74,0,0,1-.64-.32A1.26,1.26,0,0,1,104.24,162.31Zm.54,0a.54.54,0,0,0,.22.44.76.76,0,0,0,.51.18,1.43,1.43,0,0,0,.29,0,2.12,2.12,0,0,0,.29-.11.69.69,0,0,0,.24-.24.76.76,0,0,0,.09-.38v-.68a2.85,2.85,0,0,0-1.25.26A.63.63,0,0,0,104.78,162.29Z"/><path d="M160.72,155.76v-.46h.7v-4.38h-.7v-.46h2v.46H162v1.85h2.44v-1.85h-.7v-.46h2v.46H165v4.38h.69v.46h-2v-.46h.7v-2.07H162v2.07h.7v.46Z"/><path d="M166.31,152.72v-.46l1.19-.1v2.54a.76.76,0,0,0,.12.49c.07.1.25.15.53.15a1.09,1.09,0,0,0,.67-.23.93.93,0,0,0,.3-.78V153a.23.23,0,0,0-.08-.21,1.66,1.66,0,0,0-.46,0h-.11v-.46l1.19-.1v2.9c0,.11,0,.18.08.2a1.82,1.82,0,0,0,.45,0h.11v.47l-1.16,0v-.51a1.72,1.72,0,0,1-1.27.51,1.27,1.27,0,0,1-.42-.07.84.84,0,0,1-.27-.17.66.66,0,0,1-.15-.26A2.32,2.32,0,0,1,167,155a2.53,2.53,0,0,1,0-.29v-1.81a.18.18,0,0,0-.09-.17,1.38,1.38,0,0,0-.4,0Z"/><path d="M170.72,155.76v-.46h.65v-2.36a.19.19,0,0,0-.08-.18,1.74,1.74,0,0,0-.45,0h-.12v-.46l1.15-.1v.52a1.44,1.44,0,0,1,1.15-.52c.52,0,.85.18,1,.56a1.78,1.78,0,0,1,.6-.46,1.47,1.47,0,0,1,.56-.1h0a1.45,1.45,0,0,1,.49.07,1,1,0,0,1,.31.18.73.73,0,0,1,.17.27,2.11,2.11,0,0,1,.07.3,3.11,3.11,0,0,1,0,.32v2h.65v.46H175v-.46h.65v-2a1.44,1.44,0,0,0,0-.24.74.74,0,0,0-.08-.22.45.45,0,0,0-.24-.18,1.27,1.27,0,0,0-.43-.06.76.76,0,0,0-.62.28,1.13,1.13,0,0,0-.23.74v1.66h.65v.46h-1.84v-.46h.65v-2a1.44,1.44,0,0,0,0-.24,1.28,1.28,0,0,0-.09-.22.39.39,0,0,0-.23-.18,1.27,1.27,0,0,0-.43-.06.77.77,0,0,0-.62.28,1.13,1.13,0,0,0-.23.74v1.66h.65v.46Z"/><path d="M177.26,154.75a.93.93,0,0,1,.09-.4,1.33,1.33,0,0,1,.31-.39,1.72,1.72,0,0,1,.68-.32,4.35,4.35,0,0,1,1.1-.12v-.23q0-.69-.9-.69l-.44,0v0a.33.33,0,0,1-.09.25.32.32,0,0,1-.21.08.27.27,0,0,1-.22-.09.31.31,0,0,1-.08-.23c0-.34.36-.52,1.08-.52a1.63,1.63,0,0,1,1,.3,1,1,0,0,1,.38.85s0,0,0,0v1.63a.39.39,0,0,0,0,.18c0,.1.13.15.32.17l.29,0a.27.27,0,0,1,.07.22.25.25,0,0,1-.05.17.28.28,0,0,1-.18,0h-.14c-.45,0-.71-.14-.8-.41a2.18,2.18,0,0,1-1.38.45.72.72,0,0,1-.64-.32A1.26,1.26,0,0,1,177.26,154.75Zm.55,0a.53.53,0,0,0,.21.43.76.76,0,0,0,.51.18,1.43,1.43,0,0,0,.29,0,2.12,2.12,0,0,0,.29-.11.56.56,0,0,0,.24-.24.77.77,0,0,0,.1-.38s0,0,0-.06v-.62a2.85,2.85,0,0,0-1.25.26A.62.62,0,0,0,177.81,154.74Z"/><path d="M181,155.76v-.46h.64v-2.36c0-.09,0-.15-.08-.18a1.62,1.62,0,0,0-.45,0H181v-.46l1.14-.1v.52a1.45,1.45,0,0,1,1.14-.52,1.37,1.37,0,0,1,.58.1.6.6,0,0,1,.33.29,1.17,1.17,0,0,1,.13.35,2.3,2.3,0,0,1,0,.4v2H185v.46h-1.83v-.46h.64v-2a.82.82,0,0,0,0-.24.74.74,0,0,0-.08-.22.43.43,0,0,0-.23-.18,1.27,1.27,0,0,0-.43-.06.75.75,0,0,0-.62.28,1.08,1.08,0,0,0-.23.74v1.66h.64v.46Z"/><path d="M187.94,154a1.92,1.92,0,0,1,.44-1.31,1.47,1.47,0,0,1,1.15-.5,1.42,1.42,0,0,1,.68.15,1,1,0,0,1,.44.38,1.67,1.67,0,0,1,.21.5,2.33,2.33,0,0,1,.06.53c0,.08,0,.14,0,.16a.33.33,0,0,1-.15,0h-2.2a2.12,2.12,0,0,0,.11.71,1.06,1.06,0,0,0,.31.44,1.49,1.49,0,0,0,.41.22,1.76,1.76,0,0,0,.46.06.66.66,0,0,0,.64-.51.29.29,0,0,1,.09-.13.24.24,0,0,1,.15,0h0c.13,0,.2,0,.2.14a1.05,1.05,0,0,1-.37.64,1.3,1.3,0,0,1-.93.37,1.63,1.63,0,0,1-1.19-.49A1.8,1.8,0,0,1,187.94,154Zm.63-.48h1.89a.87.87,0,0,0-.92-.87A.93.93,0,0,0,188.57,153.47Z"/><path d="M191.31,152.66v-.46H193v.46h-.52c.46,1.24.75,2.06.87,2.47l.34-1,.47-1.5h-.48v-.46h1.51v.46h-.6l-1.19,3.4c-.06.16-.11.28-.14.37a1.51,1.51,0,0,1-.18.31,1.23,1.23,0,0,1-.29.31,1.05,1.05,0,0,1-.7.26.76.76,0,0,1-.49-.16.48.48,0,0,1-.22-.41.29.29,0,0,1,.09-.22.32.32,0,0,1,.42,0,.3.3,0,0,1,.1.22s0,0,0,.11H192a1,1,0,0,0,.25,0,1,1,0,0,0,.21-.08.61.61,0,0,0,.16-.12.75.75,0,0,0,.12-.14.56.56,0,0,0,.1-.15.93.93,0,0,0,.07-.15L193,156a.53.53,0,0,1,0-.11.58.58,0,0,0,0-.14.9.9,0,0,0,0-.15l-1.12-3Z"/><path d="M195.53,154a1.92,1.92,0,0,1,.44-1.31,1.6,1.6,0,0,1,1.84-.35,1,1,0,0,1,.43.38,1.67,1.67,0,0,1,.21.5,2.33,2.33,0,0,1,.07.53c0,.08,0,.14-.06.16a.33.33,0,0,1-.15,0h-2.2a1.88,1.88,0,0,0,.12.71,1,1,0,0,0,.3.44,1.49,1.49,0,0,0,.41.22,1.76,1.76,0,0,0,.46.06.65.65,0,0,0,.64-.51.29.29,0,0,1,.09-.13.24.24,0,0,1,.15,0h0c.13,0,.2,0,.2.14a1.05,1.05,0,0,1-.37.64,1.3,1.3,0,0,1-.93.37,1.63,1.63,0,0,1-1.19-.49A1.8,1.8,0,0,1,195.53,154Zm.63-.48h1.89a.87.87,0,0,0-.92-.87A.93.93,0,0,0,196.16,153.47Z"/><path d="M201.55,150.94v-.46l1.16-.11v2.22a2.3,2.3,0,0,1,1.38-.42h0a1.08,1.08,0,0,1,1,.5,2.26,2.26,0,0,1,.34,1.3,2.56,2.56,0,0,1-.14.87,1.33,1.33,0,0,1-.36.57,1.54,1.54,0,0,1-.46.29,1.27,1.27,0,0,1-.5.1,1.81,1.81,0,0,1-1.26-.51l0,.47h-.46v-4.61c0-.09,0-.15-.07-.17a1.15,1.15,0,0,0-.42,0Zm1.19,3.58a.82.82,0,0,0,.27.52.89.89,0,0,0,.69.3,1.34,1.34,0,0,0,.35-.05,1.16,1.16,0,0,0,.36-.17.8.8,0,0,0,.3-.42,1.85,1.85,0,0,0,.12-.71c0-.91-.35-1.36-1.06-1.36a1.26,1.26,0,0,0-.7.2.58.58,0,0,0-.33.51Z"/><path d="M206.07,154.75a.93.93,0,0,1,.09-.4,1.18,1.18,0,0,1,.31-.39,1.66,1.66,0,0,1,.68-.32,4.26,4.26,0,0,1,1.09-.12v-.23q0-.69-.9-.69l-.44,0v0a.29.29,0,0,1-.08.25.37.37,0,0,1-.22.08.28.28,0,0,1-.22-.09.36.36,0,0,1-.08-.23c0-.34.36-.52,1.08-.52a1.59,1.59,0,0,1,1,.3,1,1,0,0,1,.38.85v1.65a.77.77,0,0,0,0,.18c0,.1.13.15.32.17l.29,0c.05,0,.07.1.07.22s0,.14,0,.17a.25.25,0,0,1-.17,0h-.14c-.45,0-.72-.14-.8-.41a2.21,2.21,0,0,1-1.39.45.73.73,0,0,1-.64-.32A1.26,1.26,0,0,1,206.07,154.75Zm.54,0a.53.53,0,0,0,.21.43.8.8,0,0,0,.52.18,1.33,1.33,0,0,0,.28,0,1.72,1.72,0,0,0,.29-.11.64.64,0,0,0,.25-.24.76.76,0,0,0,.09-.38v-.06a.13.13,0,0,1,0-.05v-.57a2.8,2.8,0,0,0-1.24.26A.64.64,0,0,0,206.61,154.74Z"/><path d="M209.75,155.76v-.46h.64v-4.15c0-.1,0-.15-.08-.18a1.58,1.58,0,0,0-.41,0h-.15v-.46l1.16-.11v4.93h.66v.46Z"/><path d="M212,155.76v-.46h.65v-4.15c0-.1,0-.15-.09-.18a1.58,1.58,0,0,0-.41,0H212v-.46l1.16-.11v4.93h.66v.46Z"/><text class="cls-14" transform="translate(21.36 25.5)"><tspan class="cls-8" xml:space="preserve">   </tspan><tspan class="cls-15" x="7.36" y="0"> </tspan><tspan class="cls-8" x="9.77" y="0"> </tspan><tspan class="cls-15" x="12.22" y="0"> </tspan><tspan x="14.63" y="0"> </tspan></text><path d="M38.9,24.65v-.59l.89,0,.14-5.65-.89,0,0-.59,3.27.08a3.66,3.66,0,0,1,1.33.25,2.56,2.56,0,0,1,.91.59,2.82,2.82,0,0,1,.56.83,3.5,3.5,0,0,1,.29.94,5.82,5.82,0,0,1,.07.95,4.39,4.39,0,0,1-.07.61,6.14,6.14,0,0,1-.19.78,2.65,2.65,0,0,1-1.39,1.57,3.58,3.58,0,0,1-1.69.31Zm1.62-.55,1.54,0a3.37,3.37,0,0,0,1.29-.2,1.84,1.84,0,0,0,.83-.62,2.46,2.46,0,0,0,.42-.86,3.91,3.91,0,0,0,.15-1,4.74,4.74,0,0,0,0-.86,3.37,3.37,0,0,0-.23-.79,2,2,0,0,0-.45-.66,2.27,2.27,0,0,0-.75-.45,3.14,3.14,0,0,0-1.07-.19l-1.54,0Z"/><path d="M46.28,24.83v-.59l.84,0,.07-3c0-.16,0-.26-.08-.3a1.73,1.73,0,0,0-.55-.07h-.15l0-.59,1.46-.1-.1,4.05h.75l0,.6Zm.63-6.41a.47.47,0,0,1,.17-.37.48.48,0,0,1,.37-.14.49.49,0,0,1,.36.15.54.54,0,0,1,.15.39.46.46,0,0,1-.17.36.53.53,0,0,1-.36.15.57.57,0,0,1-.37-.16A.54.54,0,0,1,46.91,18.42Z"/><path d="M49.15,24.69l0-1.39a.25.25,0,0,1,0-.17.39.39,0,0,1,.22,0h.19a.18.18,0,0,1,.1,0,.23.23,0,0,1,0,.07s0,.06,0,.14,0,.13,0,.18a1.1,1.1,0,0,0,1.73.65.79.79,0,0,0,.22-.51.59.59,0,0,0,0-.23.52.52,0,0,0-.1-.18.67.67,0,0,0-.15-.14.69.69,0,0,0-.17-.11L51.17,23,51,22.91l-.14,0h-.08l-.1,0-.17,0-.22-.06a1.06,1.06,0,0,1-.25-.09l-.24-.12a1,1,0,0,1-.23-.18,2,2,0,0,1-.19-.22.8.8,0,0,1-.13-.28,1.27,1.27,0,0,1,0-.34,1.35,1.35,0,0,1,.07-.41,1.37,1.37,0,0,1,.24-.39,1.14,1.14,0,0,1,.51-.31,2.46,2.46,0,0,1,.81-.1,1.55,1.55,0,0,1,1,.33l0-.06a.15.15,0,0,1,0-.06l0,0,0-.05,0,0,0,0h.08c.08,0,.13,0,.14.07a.52.52,0,0,1,0,.19l0,1c0,.12,0,.2-.06.23s-.12,0-.27,0H51.8a.15.15,0,0,1-.08,0s0,0,0-.06,0,0,0-.09,0-.1,0-.13a1.64,1.64,0,0,0-.07-.28.77.77,0,0,0-.27-.28.9.9,0,0,0-.53-.16,1,1,0,0,0-.69.17.62.62,0,0,0-.2.44.52.52,0,0,0,.15.39.73.73,0,0,0,.37.21l.53.14.46.13a1.92,1.92,0,0,1,.75.48,1.13,1.13,0,0,1,.33.86,1.63,1.63,0,0,1-.08.45,1.42,1.42,0,0,1-.24.43,1.1,1.1,0,0,1-.51.35,2.23,2.23,0,0,1-.82.11,1.55,1.55,0,0,1-1.14-.51.42.42,0,0,0-.07.11c0,.05-.05.09-.07.13a1,1,0,0,0-.08.11.3.3,0,0,1-.09.1.12.12,0,0,1-.1,0,.17.17,0,0,1-.11,0S49.15,24.82,49.15,24.69Z"/><path d="M53,26.35l.83,0,.12-5a.21.21,0,0,0-.11-.21,1.55,1.55,0,0,0-.53-.06h-.18l0-.59,1.5-.1,0,.56a3,3,0,0,1,1.83-.5h0a1.37,1.37,0,0,1,1.2.67A3.08,3.08,0,0,1,58,22.8a2.48,2.48,0,0,1-.61,1.78,1.83,1.83,0,0,1-1.34.54,2.25,2.25,0,0,1-1.54-.65l-.05,1.92.83,0,0,.59L52.94,27Zm1.6-3a1.08,1.08,0,0,0,.35.74,1.17,1.17,0,0,0,.87.38,1.38,1.38,0,0,0,1-.42,1.8,1.8,0,0,0,.47-1.3,1.82,1.82,0,0,0-.37-1.3,1.31,1.31,0,0,0-1-.45,1.65,1.65,0,0,0-.9.24.76.76,0,0,0-.44.63Z"/><path d="M58.64,25.14l0-.6.83,0,.13-5.35c0-.12,0-.19-.1-.22a1.64,1.64,0,0,0-.53-.06h-.2l0-.59,1.51-.11-.16,6.36.84,0v.59Z"/><path d="M61.66,23.91a1.2,1.2,0,0,1,.12-.52,1.53,1.53,0,0,1,.42-.49,2.07,2.07,0,0,1,.88-.38,5.41,5.41,0,0,1,1.42-.13V22.1c0-.59-.36-.9-1.13-.92-.15,0-.34,0-.57,0v0a.37.37,0,0,1-.12.31.4.4,0,0,1-.27.11.4.4,0,0,1-.29-.13.38.38,0,0,1-.09-.29c0-.45.48-.66,1.4-.64a2.13,2.13,0,0,1,1.31.42,1.31,1.31,0,0,1,.46,1.11v0a0,0,0,0,0,0,0l0,2.08a1.42,1.42,0,0,0,0,.23c0,.12.17.19.41.23l.38.05c.06,0,.08.13.08.29a.26.26,0,0,1-.07.21.34.34,0,0,1-.23,0h-.18c-.58,0-.91-.21-1-.56a2.79,2.79,0,0,1-1.8.54.92.92,0,0,1-.82-.44A1.63,1.63,0,0,1,61.66,23.91Zm.69,0a.71.71,0,0,0,.27.57,1.06,1.06,0,0,0,.65.24,2.22,2.22,0,0,0,.37,0,2.14,2.14,0,0,0,.38-.13.91.91,0,0,0,.32-.3.94.94,0,0,0,.13-.49V22.9a3.64,3.64,0,0,0-1.61.29A.81.81,0,0,0,62.35,23.91Z"/><path d="M66.36,21.33v-.59l2.11.05v.59H67.8c.56,1.61.91,2.67,1,3.2l.46-1.23L70,21.42h-.62l0-.59,1.93,0v.59h-.77l-1.64,4.34c-.08.2-.15.36-.19.47a2.3,2.3,0,0,1-.24.39,1.65,1.65,0,0,1-.39.4,1.41,1.41,0,0,1-.91.31,1,1,0,0,1-.63-.23.61.61,0,0,1-.26-.53.35.35,0,0,1,.12-.28.36.36,0,0,1,.27-.1.4.4,0,0,1,.27.11.38.38,0,0,1,.12.29.53.53,0,0,1,0,.13h.15a1.12,1.12,0,0,0,.32,0l.27-.09a.8.8,0,0,0,.21-.15,1.41,1.41,0,0,0,.17-.18,1.57,1.57,0,0,0,.12-.19,1.88,1.88,0,0,0,.1-.19,1.08,1.08,0,0,1,.07-.18.62.62,0,0,1,0-.14.71.71,0,0,0,0-.18.88.88,0,0,0,0-.19l-1.34-3.88Z"/><path d="M75.05,25.33l0-1.39a.25.25,0,0,1,0-.17.37.37,0,0,1,.22,0h.19a.19.19,0,0,1,.1.05.23.23,0,0,1,0,.07s0,.06,0,.13,0,.14,0,.19a1.1,1.1,0,0,0,1.73.65.79.79,0,0,0,.22-.51.59.59,0,0,0,0-.23.45.45,0,0,0-.1-.18,1.06,1.06,0,0,0-.15-.15l-.17-.1a.69.69,0,0,0-.19-.07l-.16,0-.14,0-.08,0-.1,0-.16,0-.23-.06L76,23.27l-.24-.13a1.24,1.24,0,0,1-.23-.17,2,2,0,0,1-.19-.22.8.8,0,0,1-.13-.28,1.27,1.27,0,0,1,0-.34,1.3,1.3,0,0,1,.07-.41,1.37,1.37,0,0,1,.24-.39A1.06,1.06,0,0,1,76,21a2.46,2.46,0,0,1,.81-.1,1.55,1.55,0,0,1,1,.33l0-.07,0-.05a.21.21,0,0,1,0-.06l0,0,0,0,0,0h.09c.07,0,.12,0,.13.06a.88.88,0,0,1,0,.2l0,1c0,.12,0,.2-.06.23s-.12,0-.27,0H77.7a.15.15,0,0,1-.08,0,.15.15,0,0,1,0-.06s0,0,0-.09a1.05,1.05,0,0,1,0-.13,1.43,1.43,0,0,0-.07-.28.77.77,0,0,0-.27-.28.84.84,0,0,0-.53-.16,1,1,0,0,0-.69.17.6.6,0,0,0-.2.44.52.52,0,0,0,.15.39.91.91,0,0,0,.37.21l.53.14.46.12a2.18,2.18,0,0,1,.75.48,1.17,1.17,0,0,1,.33.87,1.63,1.63,0,0,1-.08.45,1.33,1.33,0,0,1-.24.43,1.1,1.1,0,0,1-.51.35,2.23,2.23,0,0,1-.82.11,1.55,1.55,0,0,1-1.14-.51s0,.05-.07.11,0,.09-.07.13l-.08.11s-.06.08-.09.09a.17.17,0,0,1-.1,0,.17.17,0,0,1-.11,0S75.05,25.46,75.05,25.33Z"/><path d="M79,21.72v-.59l1.54-.1-.08,3.27a1,1,0,0,0,.13.65c.09.13.32.19.69.2a1.32,1.32,0,0,0,.86-.27,1.21,1.21,0,0,0,.41-1l0-1.76c0-.14,0-.23-.08-.27a2.2,2.2,0,0,0-.6-.07H81.8l0-.59,1.53-.1-.09,3.74c0,.14,0,.23.09.26a2.24,2.24,0,0,0,.58.06h.15l0,.6h-1.5l0-.66a2.17,2.17,0,0,1-1.65.62,1.5,1.5,0,0,1-.55-.1A1,1,0,0,1,80,25.4a.75.75,0,0,1-.18-.33,2,2,0,0,1-.07-.36,2.26,2.26,0,0,1,0-.37l0-2.32a.22.22,0,0,0-.1-.23,1.61,1.61,0,0,0-.52-.06Z"/><path d="M84.49,25.77v-.59l.83,0,.08-3c0-.12,0-.2-.1-.23a1.7,1.7,0,0,0-.57-.07h-.16l0-.59,1.45-.1v.7a1.49,1.49,0,0,1,1.23-.66.77.77,0,0,1,.51.17.53.53,0,0,1,.2.43.39.39,0,0,1-.13.27.33.33,0,0,1-.27.1.4.4,0,0,1-.25-.09.36.36,0,0,1-.13-.3,1.17,1.17,0,0,0-.83.52A2.32,2.32,0,0,0,86,23.53l0,1.69,1,0v.59Z"/><path d="M88.43,25.87l0-.59.83,0,.08-3.4-.78,0,0-.59.78,0,0-.79a1.52,1.52,0,0,1,.15-.69,1.24,1.24,0,0,1,.34-.47,1.8,1.8,0,0,1,.47-.27,2,2,0,0,1,.48-.13,3,3,0,0,1,.42,0,.48.48,0,0,1,.41.21.84.84,0,0,1,.12.42.4.4,0,0,1-.12.28.36.36,0,0,1-.28.12.46.46,0,0,1-.26-.11.39.39,0,0,1-.12-.33.87.87,0,0,0-.75.27,1.26,1.26,0,0,0-.22.75l0,.79,1.18,0,0,.59-1.15,0L90,25.32l1,0v.59Z"/><path d="M91.7,24.65a1.37,1.37,0,0,1,.13-.52,1.62,1.62,0,0,1,.41-.49,2.19,2.19,0,0,1,.88-.38,5.49,5.49,0,0,1,1.42-.13v-.29c0-.59-.36-.9-1.13-.92-.16,0-.35,0-.57,0v0a.37.37,0,0,1-.12.31.43.43,0,0,1-.28.11.37.37,0,0,1-.28-.13.43.43,0,0,1-.1-.29c0-.45.48-.66,1.41-.64a2,2,0,0,1,1.3.42,1.31,1.31,0,0,1,.47,1.11s0,0,0,0v0L95.19,25a1.21,1.21,0,0,0,0,.23c0,.12.17.19.41.23l.37.05c.06,0,.09.13.08.29s0,.18-.06.21a.36.36,0,0,1-.23.05H95.6c-.58,0-.92-.21-1-.56a2.85,2.85,0,0,1-1.8.55.94.94,0,0,1-.81-.45A1.55,1.55,0,0,1,91.7,24.65Zm.7,0a.67.67,0,0,0,.26.57,1.06,1.06,0,0,0,.66.24l.37,0a2.05,2.05,0,0,0,.37-.13.84.84,0,0,0,.32-.3.94.94,0,0,0,.14-.49.25.25,0,0,0,0-.08v-.06l0-.73a3.58,3.58,0,0,0-1.61.29A.81.81,0,0,0,92.4,24.65Z"/><path d="M96.53,23.79a3.6,3.6,0,0,1,.12-.81,3,3,0,0,1,.36-.74,1.66,1.66,0,0,1,.71-.58,2.56,2.56,0,0,1,1.11-.2l.45,0a3.22,3.22,0,0,1,.44.08.77.77,0,0,1,.4.21.58.58,0,0,1,.13.39.4.4,0,0,1-.11.29.36.36,0,0,1-.28.11c-.25,0-.38-.16-.38-.45a4.18,4.18,0,0,0-.56,0,1.5,1.5,0,0,0-1.14.33,1.86,1.86,0,0,0-.5,1.35,2.15,2.15,0,0,0,.14.87,1.3,1.3,0,0,0,.4.57,1.8,1.8,0,0,0,.51.27,1.61,1.61,0,0,0,.54.09.71.71,0,0,0,.51-.15,1,1,0,0,0,.28-.37.81.81,0,0,1,.12-.22s.12,0,.28,0,.22,0,.22.14a1.62,1.62,0,0,1-.09.26,2.89,2.89,0,0,1-.27.43,1.27,1.27,0,0,1-.52.4,1.6,1.6,0,0,1-.79.16,2.06,2.06,0,0,1-1.53-.67A2.43,2.43,0,0,1,96.53,23.79Z"/><path d="M100.91,23.85a2.48,2.48,0,0,1,.61-1.68,1.83,1.83,0,0,1,1.49-.6,2,2,0,0,1,.88.2,1.36,1.36,0,0,1,.55.51,2.08,2.08,0,0,1,.25.65,3.11,3.11,0,0,1,.07.69c0,.1,0,.17-.08.2a.37.37,0,0,1-.2,0l-2.82-.07a2.48,2.48,0,0,0,.12.91,1.25,1.25,0,0,0,.38.58,1.8,1.8,0,0,0,.52.29,1.92,1.92,0,0,0,.59.1.85.85,0,0,0,.84-.64.37.37,0,0,1,.12-.16.3.3,0,0,1,.19,0h0c.16,0,.25.07.24.19a1.29,1.29,0,0,1-.49.81,1.64,1.64,0,0,1-1.21.45,2.09,2.09,0,0,1-1.52-.67A2.32,2.32,0,0,1,100.91,23.85Zm.82-.6,2.43.06c-.08-.75-.47-1.14-1.15-1.15A1.2,1.2,0,0,0,101.73,23.25Z"/><path d="M183.79,101.43V101h.69V96.61h-.69v-.46H188l.22,2h-.45c-.08-.66-.14-1.08-.18-1.25a.38.38,0,0,0-.11-.17,1.13,1.13,0,0,0-.35-.07l-.92,0h-1.15v1.85h.6a2.34,2.34,0,0,0,.78-.07s.06-.12.08-.26,0-.39,0-.5v-.08H187v2.27h-.45v-.08c0-.1,0-.27,0-.5s0-.23-.08-.26a2.59,2.59,0,0,0-.77-.07h-.61V101h1.25a8.6,8.6,0,0,0,1.11,0,.32.32,0,0,0,.25-.14,6.92,6.92,0,0,0,.28-1.35c0-.06,0-.14,0-.22h.46l-.33,2.21Z"/><path d="M188.79,98.33v-.45h1.64v.45h-.52c.46,1.24.76,2.06.88,2.47l.33-1,.48-1.5h-.48v-.45h1.5v.45H192l-1.19,3.4c-.06.16-.1.28-.14.37a1.41,1.41,0,0,1-.17.31,1.3,1.3,0,0,1-.3.32,1.07,1.07,0,0,1-.7.25.78.78,0,0,1-.49-.16.49.49,0,0,1-.21-.4.34.34,0,0,1,.08-.23.33.33,0,0,1,.22-.08.37.37,0,0,1,.21.08.31.31,0,0,1,.07.33h.12a1,1,0,0,0,.25,0,.93.93,0,0,0,.2-.08.66.66,0,0,0,.17-.12l.12-.13.09-.16a.48.48,0,0,0,.07-.15.72.72,0,0,0,.05-.14c0-.06,0-.1,0-.11a.33.33,0,0,0,0-.14.54.54,0,0,0,0-.15l-1.11-3Z"/><path d="M193,99.62a1.92,1.92,0,0,1,.43-1.31,1.6,1.6,0,0,1,1.84-.35,1,1,0,0,1,.43.38,1.67,1.67,0,0,1,.21.5,1.88,1.88,0,0,1,.07.53c0,.09,0,.14-.06.16a.33.33,0,0,1-.15,0h-2.2a1.83,1.83,0,0,0,.12.7,1,1,0,0,0,.3.44,1.49,1.49,0,0,0,.41.22,1.76,1.76,0,0,0,.46.06.65.65,0,0,0,.64-.51.29.29,0,0,1,.09-.13.26.26,0,0,1,.15,0h0c.12,0,.19.05.19.14a1,1,0,0,1-.37.64,1.3,1.3,0,0,1-.93.37,1.59,1.59,0,0,1-1.19-.49A1.83,1.83,0,0,1,193,99.62Zm.62-.48h1.89a.87.87,0,0,0-.92-.87A.93.93,0,0,0,193.62,99.14Z"/><path d="M196.37,96.61v-.46l1.16-.11v2.22a2.3,2.3,0,0,1,1.38-.42h0a1.08,1.08,0,0,1,1,.5,2.26,2.26,0,0,1,.34,1.3,2.52,2.52,0,0,1-.14.87,1.33,1.33,0,0,1-.36.57,1.58,1.58,0,0,1-.46.3,1.47,1.47,0,0,1-.5.09,1.81,1.81,0,0,1-1.26-.51l0,.47H197v-4.6c0-.1,0-.16-.07-.18a1.15,1.15,0,0,0-.42,0Zm1.19,3.58a.82.82,0,0,0,.27.52.89.89,0,0,0,.69.3,1.34,1.34,0,0,0,.35-.05,1.16,1.16,0,0,0,.36-.17.77.77,0,0,0,.3-.42,1.85,1.85,0,0,0,.12-.71c0-.91-.35-1.36-1.06-1.36a1.26,1.26,0,0,0-.7.2.59.59,0,0,0-.33.51Z"/><path d="M201,100.42a.93.93,0,0,1,.09-.4,1.18,1.18,0,0,1,.31-.39,1.67,1.67,0,0,1,.67-.31,4,4,0,0,1,1.1-.13V99h0v0c0-.46-.3-.69-.9-.7l-.44,0v0a.29.29,0,0,1-.08.25.37.37,0,0,1-.22.08.28.28,0,0,1-.22-.09.36.36,0,0,1-.08-.23c0-.34.36-.52,1.08-.52a1.59,1.59,0,0,1,1,.3,1,1,0,0,1,.38.86h0v1.64a.59.59,0,0,0,0,.17c0,.1.13.15.32.17l.29,0s.07.1.07.22a.25.25,0,0,1-.05.17.25.25,0,0,1-.17,0H204c-.45,0-.72-.14-.8-.41a2.21,2.21,0,0,1-1.39.46.74.74,0,0,1-.64-.33A1.26,1.26,0,0,1,201,100.42Zm.54,0a.53.53,0,0,0,.21.43.8.8,0,0,0,.52.18,1.33,1.33,0,0,0,.28,0,1.15,1.15,0,0,0,.29-.11.56.56,0,0,0,.24-.24.65.65,0,0,0,.1-.38v-.06a.11.11,0,0,1,0,0v-.57a2.8,2.8,0,0,0-1.24.26A.64.64,0,0,0,201.5,100.41Z"/><path d="M204.61,101.43V101h.65V96.82a.18.18,0,0,0-.08-.18,1.74,1.74,0,0,0-.42,0h-.15v-.46l1.17-.11V101h.66v.46Z"/><path d="M206.79,101.43V101h.65V96.82a.18.18,0,0,0-.08-.18,1.74,1.74,0,0,0-.42,0h-.15v-.46L208,96V101h.65v.46Z"/><path d="M183.71,108.6a2.18,2.18,0,0,1,.08-.63,2,2,0,0,1,.26-.58,1.23,1.23,0,0,1,.54-.46,1.87,1.87,0,0,1,.85-.18l.35,0a1.72,1.72,0,0,1,.35,0,.58.58,0,0,1,.31.16.42.42,0,0,1,.11.29.34.34,0,0,1-.08.23.29.29,0,0,1-.22.09c-.19,0-.29-.11-.3-.34l-.44,0a1.23,1.23,0,0,0-.87.27,1.43,1.43,0,0,0-.36,1.06,1.79,1.79,0,0,0,.12.68,1,1,0,0,0,.32.43,1.66,1.66,0,0,0,.4.2,1.54,1.54,0,0,0,.43.06.56.56,0,0,0,.39-.13.86.86,0,0,0,.21-.29.45.45,0,0,1,.09-.17.48.48,0,0,1,.21,0c.11,0,.17,0,.17.11a.58.58,0,0,1-.06.2,2.67,2.67,0,0,1-.2.34,1.11,1.11,0,0,1-.4.32,1.33,1.33,0,0,1-.6.14,1.6,1.6,0,0,1-1.2-.49A1.85,1.85,0,0,1,183.71,108.6Z"/><path d="M187.09,108.56a1.87,1.87,0,0,1,.44-1.31,1.59,1.59,0,0,1,1.83-.35,1,1,0,0,1,.43.38,1.67,1.67,0,0,1,.21.5,1.88,1.88,0,0,1,.07.53c0,.08,0,.14-.06.16a.31.31,0,0,1-.15,0h-2.19a1.89,1.89,0,0,0,.11.71,1,1,0,0,0,.31.44,1.36,1.36,0,0,0,.41.22,1.65,1.65,0,0,0,.46.06.65.65,0,0,0,.63-.51.29.29,0,0,1,.09-.13.28.28,0,0,1,.15,0h0c.13,0,.19,0,.19.14a1,1,0,0,1-.37.64,1.3,1.3,0,0,1-.93.37,1.59,1.59,0,0,1-1.19-.49A1.83,1.83,0,0,1,187.09,108.56Zm.62-.48h1.89a.87.87,0,0,0-.92-.87A.93.93,0,0,0,187.71,108.08Z"/><path d="M190.53,110.37v-.46h.65v-2.36a.19.19,0,0,0-.08-.18,1.62,1.62,0,0,0-.45,0h-.12v-.45l1.15-.11v.52a1.43,1.43,0,0,1,1.14-.52,1.4,1.4,0,0,1,.58.1.6.6,0,0,1,.33.29,1.17,1.17,0,0,1,.13.35c0,.1,0,.24,0,.4v2h.65v.46H192.7v-.46h.64v-2a1.44,1.44,0,0,0,0-.24.57.57,0,0,0-.09-.22.37.37,0,0,0-.22-.18,1.31,1.31,0,0,0-.43-.06.75.75,0,0,0-.62.28,1.08,1.08,0,0,0-.24.74v1.66h.65v.46Z"/><path d="M194.83,107.27v-.46a.65.65,0,0,0,.56-.38,3.06,3.06,0,0,0,.18-1.14H196v1.52h1.11v.46H196v2c0,.42.12.63.38.63a.35.35,0,0,0,.3-.18.88.88,0,0,0,.1-.48v-.39h.46v.42a1.2,1.2,0,0,1-.12.55.86.86,0,0,1-.31.34,1.25,1.25,0,0,1-.35.17,1.18,1.18,0,0,1-.31,0,.62.62,0,0,1-.34-.09.81.81,0,0,1-.21-.2,1.11,1.11,0,0,1-.1-.28,2.06,2.06,0,0,1,0-.28v-2.29Z"/><path d="M197.94,108.56a1.92,1.92,0,0,1,.44-1.31,1.59,1.59,0,0,1,1.83-.35,1,1,0,0,1,.44.38,1.67,1.67,0,0,1,.21.5,2.33,2.33,0,0,1,.06.53.2.2,0,0,1,0,.16.35.35,0,0,1-.16,0h-2.19a2.12,2.12,0,0,0,.11.71,1.06,1.06,0,0,0,.31.44,1.49,1.49,0,0,0,.41.22,1.65,1.65,0,0,0,.46.06.67.67,0,0,0,.64-.51.42.42,0,0,1,.08-.13.3.3,0,0,1,.16,0h0c.13,0,.19,0,.19.14a1,1,0,0,1-.37.64,1.26,1.26,0,0,1-.92.37,1.6,1.6,0,0,1-1.2-.49A1.83,1.83,0,0,1,197.94,108.56Zm.62-.48h1.89a.86.86,0,0,0-.91-.87A.94.94,0,0,0,198.56,108.08Z"/><path d="M201.31,110.37v-.46H202v-2.36a.19.19,0,0,0-.08-.18,1.74,1.74,0,0,0-.45,0h-.12v-.45l1.13-.11v.54a1.18,1.18,0,0,1,.95-.53.62.62,0,0,1,.39.12.41.41,0,0,1,.16.33.26.26,0,0,1-.09.21.29.29,0,0,1-.21.09.44.44,0,0,1-.2-.07.31.31,0,0,1-.1-.23.93.93,0,0,0-.64.42,1.83,1.83,0,0,0-.22.95v1.31h.81v.46Z"/><path class="cls-6" d="M60.51,127.74v-.46h.69V122.9h-.69v-.46h2.14v.46h-.87v4.38h1a6.16,6.16,0,0,0,.95-.06A.31.31,0,0,0,64,127c0-.2.11-.67.19-1.43h.46l-.22,2.21Z"/><path class="cls-6" d="M65.2,127.74v-.46h.65V125c0-.13,0-.2-.06-.23a1.06,1.06,0,0,0-.43,0h-.12v-.46l1.13-.1v3.14H67v.46Zm.37-5a.37.37,0,0,1,.13-.29.38.38,0,0,1,.28-.11.39.39,0,0,1,.29.11.4.4,0,0,1,.12.29.36.36,0,0,1-.13.29.38.38,0,0,1-.28.12.39.39,0,0,1-.28-.12A.36.36,0,0,1,65.57,122.75Z"/><path class="cls-6" d="M67.4,128.25a1,1,0,0,1,.11-.44.91.91,0,0,1,.4-.4,1.09,1.09,0,0,1-.18-.57,1,1,0,0,1,.2-.59,1.47,1.47,0,0,1-.23-.82,1.27,1.27,0,0,1,.34-.93,1.15,1.15,0,0,1,.89-.36,1.32,1.32,0,0,1,.75.23,1.35,1.35,0,0,1,.79-.27.51.51,0,0,1,.35.11.33.33,0,0,1,.14.27.28.28,0,0,1-.08.2.25.25,0,0,1-.18.08.28.28,0,0,1-.27-.21l-.24,0-.25.06a1.58,1.58,0,0,1,.21.78,1.25,1.25,0,0,1-.34.93,1.19,1.19,0,0,1-.88.35,1.46,1.46,0,0,1-.73-.2.89.89,0,0,0-.07.27.49.49,0,0,0,.09.28.34.34,0,0,0,.25.14h.72a4.19,4.19,0,0,1,.53,0,2.15,2.15,0,0,1,.47.09,1,1,0,0,1,.41.22.84.84,0,0,1,.23.4,1.06,1.06,0,0,1,0,.31.9.9,0,0,1-.4.73,2.14,2.14,0,0,1-1.32.32A2.24,2.24,0,0,1,67.8,129,.93.93,0,0,1,67.4,128.25Zm.51,0a.57.57,0,0,0,.28.45,1.89,1.89,0,0,0,1,.19,1.78,1.78,0,0,0,.92-.19.53.53,0,0,0,.28-.43c0-.37-.4-.56-1.2-.56h-.58a.67.67,0,0,0-.53.17A.59.59,0,0,0,67.91,128.23Zm.31-2.81c0,.57.23.86.7.86s.71-.29.71-.85-.23-.86-.7-.87S68.22,124.85,68.22,125.42Z"/><path class="cls-6" d="M71.34,127.74v-.46H72v-4.15c0-.1,0-.16-.08-.18a1.63,1.63,0,0,0-.42,0h-.15v-.46l1.17-.11v2.28a1.47,1.47,0,0,1,1.12-.49,1.37,1.37,0,0,1,.58.1.67.67,0,0,1,.33.29,1.46,1.46,0,0,1,.12.35,2.17,2.17,0,0,1,0,.4v2h.64v.46H73.5v-.46h.65v-2a1.44,1.44,0,0,0,0-.24,1.28,1.28,0,0,0-.09-.22.39.39,0,0,0-.23-.18,1.27,1.27,0,0,0-.43-.06.76.76,0,0,0-.62.28,1.13,1.13,0,0,0-.23.74v1.66h.65v.46Z"/><path class="cls-6" d="M75.65,124.64v-.46a.62.62,0,0,0,.56-.38,2.83,2.83,0,0,0,.19-1.14h.45v1.52H78v.46H76.85v2q0,.63.39.63a.35.35,0,0,0,.3-.18.88.88,0,0,0,.1-.48v-.39h.46v.42a1.2,1.2,0,0,1-.12.55.86.86,0,0,1-.31.34,1.85,1.85,0,0,1-.35.17,1.24,1.24,0,0,1-.31,0,.62.62,0,0,1-.34-.09.81.81,0,0,1-.21-.2.91.91,0,0,1-.1-.28,1.16,1.16,0,0,1,0-.28,1.55,1.55,0,0,1,0-.23v-2.06Z"/><path class="cls-6" d="M81.44,127.58V126.5a.18.18,0,0,1,0-.13s.08,0,.17,0h.14a.1.1,0,0,1,.08,0s0,0,0,0a.39.39,0,0,1,0,.11s0,.1,0,.14a.77.77,0,0,0,.76.65.74.74,0,0,0,.58-.18.57.57,0,0,0,.13-.58.64.64,0,0,0-.08-.14.65.65,0,0,0-.12-.11.56.56,0,0,0-.13-.07l-.15,0-.13,0-.1,0h-.07l-.07,0-.14,0-.17,0-.2-.07-.18-.09-.19-.13-.15-.17a.64.64,0,0,1-.1-.22,1.09,1.09,0,0,1,0-.26,1.13,1.13,0,0,1,0-.32,1.45,1.45,0,0,1,.18-.31.82.82,0,0,1,.39-.24,1.67,1.67,0,0,1,.63-.1,1.2,1.2,0,0,1,.75.24l0,0a.09.09,0,0,0,0,0l0,0,0,0,0,0,0,0s0,0,0,0h0c.06,0,.1,0,.11,0a.58.58,0,0,1,0,.15v.8c0,.1,0,.16,0,.19a.4.4,0,0,1-.21,0h-.11l-.07,0,0,0s0,0,0-.07,0-.07,0-.1a.83.83,0,0,0-.06-.21.6.6,0,0,0-.21-.22.71.71,0,0,0-.42-.11.75.75,0,0,0-.53.15A.46.46,0,0,0,82,125a.42.42,0,0,0,.13.3.69.69,0,0,0,.29.16l.41.1.36.08a1.52,1.52,0,0,1,.59.36.87.87,0,0,1,.27.66,1.08,1.08,0,0,1-.05.36,1.2,1.2,0,0,1-.17.34,1,1,0,0,1-.39.27,1.75,1.75,0,0,1-.64.11,1.25,1.25,0,0,1-.9-.38.41.41,0,0,0,0,.09l-.06.1a.36.36,0,0,0-.05.09l-.07.07a.11.11,0,0,1-.08,0,.16.16,0,0,1-.09,0A.29.29,0,0,1,81.44,127.58Z"/><path class="cls-6" d="M84.52,126a1.92,1.92,0,0,1,.46-1.35,1.73,1.73,0,0,1,2.45,0,1.91,1.91,0,0,1,.46,1.34,1.81,1.81,0,0,1-.46,1.32,1.6,1.6,0,0,1-1.22.49,1.62,1.62,0,0,1-1.23-.49A1.81,1.81,0,0,1,84.52,126Zm.58-.09c0,.94.36,1.41,1.1,1.41h0c.73,0,1.1-.47,1.1-1.4s-.37-1.32-1.1-1.32S85.1,125,85.1,125.89Z"/><path class="cls-6" d="M88.41,124.7v-.46l1.19-.1v2.53a.86.86,0,0,0,.11.5q.12.15.54.15a1.09,1.09,0,0,0,.67-.23.92.92,0,0,0,.29-.78V125c0-.11,0-.18-.07-.21a1.66,1.66,0,0,0-.46,0h-.11v-.46l1.19-.1V127c0,.11,0,.18.07.2a1.88,1.88,0,0,0,.45,0h.12v.47l-1.16,0v-.52a1.69,1.69,0,0,1-1.27.52,1.33,1.33,0,0,1-.43-.07.84.84,0,0,1-.27-.17.65.65,0,0,1-.14-.26.83.83,0,0,1-.06-.28,2.27,2.27,0,0,1,0-.28v-1.81a.18.18,0,0,0-.09-.17,1.47,1.47,0,0,0-.41,0Z"/><path class="cls-6" d="M92.77,127.74v-.46h.64v-2.36a.19.19,0,0,0-.08-.18,1.58,1.58,0,0,0-.44,0h-.12v-.46l1.12-.1v.54a1.16,1.16,0,0,1,1-.53.65.65,0,0,1,.4.12.44.44,0,0,1,.16.33.26.26,0,0,1-.09.21.29.29,0,0,1-.21.09.37.37,0,0,1-.2-.07.28.28,0,0,1-.11-.23.88.88,0,0,0-.63.42,1.73,1.73,0,0,0-.23,1v1.31h.81v.46Z"/><path class="cls-6" d="M96,126a2.59,2.59,0,0,1,.07-.63,2,2,0,0,1,.27-.58,1.23,1.23,0,0,1,.54-.46,1.87,1.87,0,0,1,.85-.18H98l.35.06a.52.52,0,0,1,.31.16.4.4,0,0,1,.11.29.34.34,0,0,1-.08.23.29.29,0,0,1-.22.09c-.19,0-.29-.11-.3-.34a3.63,3.63,0,0,0-.44,0,1.23,1.23,0,0,0-.87.27,1.43,1.43,0,0,0-.36,1.06,1.79,1.79,0,0,0,.12.68A1,1,0,0,0,97,127a1.5,1.5,0,0,0,.4.2,1.52,1.52,0,0,0,.42.06.57.57,0,0,0,.4-.13,1,1,0,0,0,.21-.29.91.91,0,0,1,.08-.17.54.54,0,0,1,.22,0c.11,0,.17,0,.17.11a.65.65,0,0,1-.06.2,2.67,2.67,0,0,1-.2.34,1.11,1.11,0,0,1-.4.32,1.34,1.34,0,0,1-.61.14,1.57,1.57,0,0,1-1.19-.49A1.85,1.85,0,0,1,96,126Z"/><path class="cls-6" d="M99.38,125.93a1.92,1.92,0,0,1,.44-1.31,1.46,1.46,0,0,1,1.15-.5,1.59,1.59,0,0,1,.68.14,1.12,1.12,0,0,1,.44.39,1.57,1.57,0,0,1,.21.5,2.33,2.33,0,0,1,.06.53.2.2,0,0,1,0,.16.35.35,0,0,1-.16,0H100a2.12,2.12,0,0,0,.11.71,1.06,1.06,0,0,0,.31.44,1.49,1.49,0,0,0,.41.22,1.65,1.65,0,0,0,.46.06.67.67,0,0,0,.64-.51.42.42,0,0,1,.08-.13.3.3,0,0,1,.16,0h0c.13,0,.19,0,.19.14a1,1,0,0,1-.37.64,1.26,1.26,0,0,1-.92.37,1.64,1.64,0,0,1-1.2-.49A1.85,1.85,0,0,1,99.38,125.93Zm.62-.48h1.89a.86.86,0,0,0-.91-.87A.94.94,0,0,0,100,125.45Z"/><path d="M54,72.74v-.47h.71v-4.5H54V67.3H58.3l.23,2h-.47A12.05,12.05,0,0,0,57.87,68a.27.27,0,0,0-.11-.17.75.75,0,0,0-.36-.07c-.18,0-.5,0-.95,0H55.27v1.91h.62a2.46,2.46,0,0,0,.8-.07.45.45,0,0,0,.08-.27c0-.23,0-.41,0-.52v-.08h.47v2.34h-.47V71c0-.11,0-.28,0-.52a.42.42,0,0,0-.08-.27,2.58,2.58,0,0,0-.79-.06h-.63v2.12h1.28a8.6,8.6,0,0,0,1.15,0,.35.35,0,0,0,.26-.14,7.81,7.81,0,0,0,.29-1.39,1.11,1.11,0,0,1,0-.23h.47l-.33,2.28Z"/><path d="M59.24,72.58V71.46c0-.06,0-.11,0-.13a.27.27,0,0,1,.17,0h.15a.11.11,0,0,1,.08,0s0,0,0,.06a.29.29,0,0,1,0,.1,1.31,1.31,0,0,0,0,.15.88.88,0,0,0,1.39.49.59.59,0,0,0,.16-.41.58.58,0,0,0,0-.19.37.37,0,0,0-.08-.14.69.69,0,0,0-.13-.11A.38.38,0,0,0,61,71.2l-.15,0-.14,0-.11,0h-.06l-.08,0-.14,0-.18,0-.2-.07-.19-.1a.64.64,0,0,1-.19-.13,1.37,1.37,0,0,1-.16-.18.65.65,0,0,1-.11-.22,1.12,1.12,0,0,1,0-.27,1.26,1.26,0,0,1,0-.33,1,1,0,0,1,.18-.31.85.85,0,0,1,.4-.26,2.06,2.06,0,0,1,.65-.1,1.28,1.28,0,0,1,.78.25l0-.05a.09.09,0,0,0,0,0s0,0,0,0l0,0s0,0,0,0l0,0h.07c.06,0,.1,0,.11,0a.58.58,0,0,1,0,.15v.84c0,.1,0,.16,0,.18s-.1,0-.22,0H61.3a.09.09,0,0,1-.06,0,.05.05,0,0,1,0,0,.26.26,0,0,0,0-.07s0-.08,0-.1a2,2,0,0,0-.07-.23.57.57,0,0,0-.22-.22.72.72,0,0,0-.42-.12.74.74,0,0,0-.55.16.5.5,0,0,0-.16.35.41.41,0,0,0,.14.31.6.6,0,0,0,.29.16l.43.11.37.08a1.5,1.5,0,0,1,.61.37.94.94,0,0,1,.28.68,1.5,1.5,0,0,1,0,.37,1.21,1.21,0,0,1-.19.35.82.82,0,0,1-.4.28,1.61,1.61,0,0,1-.65.11,1.27,1.27,0,0,1-.93-.39l0,.09a.64.64,0,0,0-.06.11.7.7,0,0,0-.06.09.29.29,0,0,1-.07.08l-.08,0a.16.16,0,0,1-.09,0S59.24,72.68,59.24,72.58Z"/><path d="M62.27,69.55v-.47a.66.66,0,0,0,.57-.4A2.82,2.82,0,0,0,63,67.51h.47v1.57h1.15v.47H63.5v2.09c0,.44.14.65.4.65a.35.35,0,0,0,.31-.19.9.9,0,0,0,.1-.49v-.4h.48v.44a1.25,1.25,0,0,1-.13.56.78.78,0,0,1-.32.35,1.18,1.18,0,0,1-.36.17.91.91,0,0,1-.31,0,.69.69,0,0,1-.36-.09.81.81,0,0,1-.21-.2,1.27,1.27,0,0,1-.11-.3,2.06,2.06,0,0,1,0-.28V69.55Z"/><path d="M65.47,72.74v-.47h.66V69.89c0-.12,0-.2-.06-.23a1.19,1.19,0,0,0-.45,0H65.5v-.47L66.67,69v3.24h.6v.47Zm.37-5.14a.42.42,0,0,1,.13-.3.44.44,0,0,1,.3-.12.4.4,0,0,1,.29.12.43.43,0,0,1,0,.6.42.42,0,0,1-.29.12.44.44,0,0,1-.3-.12A.42.42,0,0,1,65.84,67.6Z"/><path d="M67.84,72.74v-.47h.67V69.84a.19.19,0,0,0-.09-.19,1.72,1.72,0,0,0-.46,0h-.12v-.47L69,69v.54A1.5,1.5,0,0,1,70.21,69a.94.94,0,0,1,1,.58,1.88,1.88,0,0,1,.62-.47,1.58,1.58,0,0,1,.58-.11h0a1.46,1.46,0,0,1,.5.08.87.87,0,0,1,.32.18.66.66,0,0,1,.17.28,1.42,1.42,0,0,1,.08.31,3.22,3.22,0,0,1,0,.33v2.06h.67v.47h-1.9v-.47H73v-2a.75.75,0,0,0-.1-.48.45.45,0,0,0-.24-.18,1.18,1.18,0,0,0-.45-.07.81.81,0,0,0-.64.29,1.16,1.16,0,0,0-.24.77v1.71H72v.47H70.07v-.47h.66v-2a.9.9,0,0,0,0-.25.68.68,0,0,0-.09-.23.39.39,0,0,0-.23-.18A1.1,1.1,0,0,0,70,69.5a.79.79,0,0,0-.64.29,1.16,1.16,0,0,0-.24.77v1.71h.66v.47Z"/><path d="M74.6,71.7a.86.86,0,0,1,.1-.41,1,1,0,0,1,.32-.4,1.71,1.71,0,0,1,.69-.33,4.65,4.65,0,0,1,1.14-.13V70.2c0-.47-.3-.71-.92-.71l-.46,0v0a.28.28,0,0,1-.08.25.33.33,0,0,1-.22.09.26.26,0,0,1-.23-.1.32.32,0,0,1-.09-.23c0-.36.38-.54,1.12-.54a1.68,1.68,0,0,1,1,.31,1.06,1.06,0,0,1,.39.88v0a0,0,0,0,1,0,0V71.9a.78.78,0,0,0,0,.19c0,.09.14.15.33.17l.3,0s.07.1.07.23,0,.14-.05.17a.26.26,0,0,1-.18,0h-.14c-.47,0-.74-.14-.83-.42a2.26,2.26,0,0,1-1.43.47.73.73,0,0,1-.65-.34A1.24,1.24,0,0,1,74.6,71.7Zm.56,0a.58.58,0,0,0,.22.45.83.83,0,0,0,.53.18,1.53,1.53,0,0,0,.3,0,1,1,0,0,0,.29-.12.53.53,0,0,0,.25-.24.71.71,0,0,0,.1-.39v-.7a3,3,0,0,0-1.29.26A.67.67,0,0,0,75.16,71.69Z"/><path d="M78.28,69.55v-.47a.67.67,0,0,0,.58-.4,3,3,0,0,0,.19-1.17h.47v1.57h1.15v.47H79.52v2.09c0,.44.13.65.4.65a.36.36,0,0,0,.31-.19.9.9,0,0,0,.1-.49v-.4h.47v.44a1.25,1.25,0,0,1-.12.56.84.84,0,0,1-.32.35,1.44,1.44,0,0,1-.36.17,1,1,0,0,1-.32,0,.65.65,0,0,1-.35-.09.58.58,0,0,1-.21-.2.94.94,0,0,1-.11-.3,1.16,1.16,0,0,1,0-.28,1.63,1.63,0,0,1,0-.24V69.55Z"/><path d="M81.56,70.88A2,2,0,0,1,82,69.53a1.65,1.65,0,0,1,1.89-.37,1,1,0,0,1,.45.4,1.92,1.92,0,0,1,.22.51,2.51,2.51,0,0,1,.06.55.23.23,0,0,1,0,.17.38.38,0,0,1-.16,0H82.16a2,2,0,0,0,.11.73,1,1,0,0,0,.32.45,1.24,1.24,0,0,0,.42.23,1.86,1.86,0,0,0,.48.06.66.66,0,0,0,.65-.52.33.33,0,0,1,.09-.14.3.3,0,0,1,.16,0h0c.14,0,.2.05.2.14a1,1,0,0,1-.38.66,1.26,1.26,0,0,1-.95.38,1.64,1.64,0,0,1-1.23-.5A1.86,1.86,0,0,1,81.56,70.88Zm.64-.5h2a.89.89,0,0,0-1-.89A1,1,0,0,0,82.2,70.38Z"/><path d="M85.19,70.91a2.28,2.28,0,0,1,.38-1.36A1.27,1.27,0,0,1,86.65,69a2.24,2.24,0,0,1,1.32.43V68a.18.18,0,0,0-.1-.19,2.11,2.11,0,0,0-.47,0h-.1V67.3l1.21-.12V72c0,.1,0,.16.07.19a1.26,1.26,0,0,0,.43,0h.17v.48l-1.23,0v-.51a2.06,2.06,0,0,1-1.34.51,1.25,1.25,0,0,1-1-.5A2.19,2.19,0,0,1,85.19,70.91Zm.6,0a2.22,2.22,0,0,0,.1.73.88.88,0,0,0,.29.43,1.11,1.11,0,0,0,.35.19,1.36,1.36,0,0,0,.36,0,1.08,1.08,0,0,0,.74-.29A.84.84,0,0,0,88,71.4V70.24a.63.63,0,0,0-.31-.52A1.18,1.18,0,0,0,87,69.5a1.58,1.58,0,0,0-.38,0,1.12,1.12,0,0,0-.37.2,1,1,0,0,0-.31.43A2.24,2.24,0,0,0,85.79,70.91Z"/><path class="cls-6" d="M165.13,126.6a2.59,2.59,0,0,1,.82-2,3.07,3.07,0,0,1,2.17-.76,2.63,2.63,0,0,1,1.77.66,4.26,4.26,0,0,1,.37-.57.23.23,0,0,1,.18-.09c.09,0,.14.06.14.17v1.74a.15.15,0,0,1-.18.19h-.32a.1.1,0,0,1-.07,0,.58.58,0,0,1,0-.17,2.63,2.63,0,0,0-.1-.3,2,2,0,0,0-.54-.67,1.47,1.47,0,0,0-1-.31,2.73,2.73,0,0,0-1.77.55,2,2,0,0,0-.69,1.64,2.14,2.14,0,0,0,.52,1.5,2.37,2.37,0,0,0,1.43.67,5.73,5.73,0,0,0,.69,0,3.43,3.43,0,0,0,.83-.07.7.7,0,0,0,.37-.17.56.56,0,0,0,.08-.32v-.61H168.7v-.58h2.5v.58h-.62v1.42c0,.15,0,.23-.09.23s-.2-.09-.38-.29a3.37,3.37,0,0,1-1.92.4,3.79,3.79,0,0,1-1.39-.24,2.42,2.42,0,0,1-1-.64,2.5,2.5,0,0,1-.53-.88A2.9,2.9,0,0,1,165.13,126.6Z"/><path d="M51.4,167.84v-.59H52V163h-.6v-.58h2.71a2.82,2.82,0,0,1,1.48.33,1.44,1.44,0,0,1,.74,1.3,1.68,1.68,0,0,1-.1.55,1.63,1.63,0,0,1-.32.52,1.65,1.65,0,0,1-.68.42,3.6,3.6,0,0,1-1.1.16H52.75v1.52h.61v.59Zm1.34-2.7h1.19a4.33,4.33,0,0,0,.88-.08,1,1,0,0,0,.56-.37,1.11,1.11,0,0,0,.06-1.11.85.85,0,0,0-.28-.31,1.24,1.24,0,0,0-.4-.17,1.69,1.69,0,0,0-.39-.06H52.74Z"/><path class="cls-11" d="M168.11,96.36v-.59h.61V91.55h-.61V91h2.72a2.82,2.82,0,0,1,1.48.33,1.44,1.44,0,0,1,.74,1.3,1.68,1.68,0,0,1-.1.55,1.52,1.52,0,0,1-1,.94,3.48,3.48,0,0,1-1.09.16h-1.38v1.52h.61v.59Zm1.35-2.7h1.19a4.41,4.41,0,0,0,.88-.08,1,1,0,0,0,.56-.37,1.11,1.11,0,0,0,.06-1.11.85.85,0,0,0-.28-.31,1.24,1.24,0,0,0-.4-.17,1.69,1.69,0,0,0-.39-.06h-1.62Z"/><path class="cls-6" d="M37.09,140.72a2.58,2.58,0,0,1,.82-2,3.07,3.07,0,0,1,2.17-.76,2.63,2.63,0,0,1,1.77.66,5.71,5.71,0,0,1,.37-.57.23.23,0,0,1,.18-.09c.09,0,.14.05.14.17v1.74c0,.08,0,.13,0,.15s-.07,0-.13,0H42A.1.1,0,0,1,42,140a.58.58,0,0,1,0-.17,1.5,1.5,0,0,0-.1-.3,1.84,1.84,0,0,0-.54-.67,1.47,1.47,0,0,0-1-.31,2.73,2.73,0,0,0-1.77.55,2,2,0,0,0-.68,1.64,2.13,2.13,0,0,0,.51,1.5,2.37,2.37,0,0,0,1.43.67,5.73,5.73,0,0,0,.69,0,3.43,3.43,0,0,0,.83-.07.7.7,0,0,0,.37-.17.56.56,0,0,0,.08-.32v-.61H40.66v-.58h2.5v.58h-.62v1.42c0,.15,0,.23-.09.23s-.2-.09-.38-.29a3.31,3.31,0,0,1-1.92.39,3.79,3.79,0,0,1-1.39-.23,2.49,2.49,0,0,1-1-.64,2.65,2.65,0,0,1-.53-.88A2.94,2.94,0,0,1,37.09,140.72Z"/><path d="M83.67,65.39l-3.91-6.2,7.39-.36a.36.36,0,0,1,0,.72l-6.79.29.3-.52L84.29,65a.37.37,0,0,1-.13.5c-.16.14-.35,0-.49-.12M157,100.05,80.2,59.8l.35-.64,76.84,40.19Z"/><path class="cls-9" d="M77.58,111.9a4.86,4.86,0,1,0,4.86-5,4.94,4.94,0,0,0-4.86,5m-4.86,0a9.72,9.72,0,1,1,9.72,9.84A9.78,9.78,0,0,1,72.72,111.9Z"/><path class="cls-6" d="M82.74,107.88h-.36A3.92,3.92,0,0,0,79,110l-.06.12-1.74-.78.12-.3A5.71,5.71,0,0,1,82.5,106h.36m3.42,6.3.06-.42a4,4,0,0,0-1.8-3.3l-.3-.24v.06l.84-1.8.18.12a5.84,5.84,0,0,1,3,5.28v.42ZM82,115.92h.48a3.71,3.71,0,0,0,3.18-1.8l.18-.36,1.8.84-.12.18a5.63,5.63,0,0,1-5.16,3.06H82Zm-3.42-4.5V112a3.91,3.91,0,0,0,1.74,3.3l.3.24-.9,1.68-.12-.06a5.87,5.87,0,0,1-3-5.28l.06-.48Zm-3.9,7.92-.48-.54A11,11,0,0,1,72,114.12l-.06-.42,1.92-.36.06.3a9.35,9.35,0,0,0,1.74,3.9l.48.48Zm7.62,3.36H81.9a11,11,0,0,1-5.4-1.8l-.24-.18,1.2-1.56.06.06A8.84,8.84,0,0,0,82,120.78h.42Zm7.74-3.18-.78.72a11.17,11.17,0,0,1-4.68,2.28h-.18l-.36-1.92h.12a8.34,8.34,0,0,0,4.38-2.4h.06Zm3.06-7.74v.12a10.36,10.36,0,0,1-1.26,5.1l-.48.84-1.68-1,.42-.66a9.26,9.26,0,0,0,1.08-4.26v-.06Zm-3.24-7.68.06.12a10.38,10.38,0,0,1,2.82,5l.12.48L91,110.1l-.12-.42a9.07,9.07,0,0,0-2.22-4l-.12-.12Zm-7.74-3h.3a10.09,10.09,0,0,1,5,1.26l.72.42-1,1.68-.54-.36A8.84,8.84,0,0,0,82.5,103h-.3Zm-7.56,3.54.3-.36a11.1,11.1,0,0,1,4.86-2.88l.24-.06.48,1.92-.18.06a8.09,8.09,0,0,0-4,2.28l-.3.3Zm-2.82,7.8v-.54A11.61,11.61,0,0,1,73,106.8l.3-.48,1.68,1-.18.3a8,8,0,0,0-1.08,4.26v.48Z"/><path class="cls-6" d="M63.09,52.92v-.46h.69V48.1h-.69v-.46H67.3l.22,2h-.46c-.07-.66-.13-1.08-.17-1.25a.32.32,0,0,0-.12-.17,1,1,0,0,0-.34-.07l-.92,0H64.36v1.84H65a2.49,2.49,0,0,0,.78-.06.42.42,0,0,0,.07-.26c0-.23,0-.4,0-.51V49h.45v2.27h-.45v-.08c0-.11,0-.27,0-.5s0-.23-.07-.26A2.65,2.65,0,0,0,65,50.4h-.61v2.06h1.25a8.71,8.71,0,0,0,1.11,0c.13,0,.21-.07.25-.15a6.53,6.53,0,0,0,.28-1.34c0-.06,0-.14,0-.22h.46l-.33,2.21Z"/><path class="cls-6" d="M68.14,52.92v-.46h.64V50.1c0-.09,0-.15-.08-.18a1.58,1.58,0,0,0-.44,0h-.12v-.46l1.13-.1v.54a1.13,1.13,0,0,1,.94-.53.65.65,0,0,1,.4.12.41.41,0,0,1,.16.33.26.26,0,0,1-.09.21.29.29,0,0,1-.21.09.37.37,0,0,1-.2-.07.28.28,0,0,1-.1-.23.9.9,0,0,0-.64.42,1.82,1.82,0,0,0-.23.95v1.31h.82v.46Z"/><path class="cls-6" d="M71.12,52.92v-.46h.64V50.1a.19.19,0,0,0-.08-.18,1.68,1.68,0,0,0-.45,0h-.11v-.46l1.12-.1v.54a1.15,1.15,0,0,1,1-.53.65.65,0,0,1,.4.12.43.43,0,0,1,.15.33.29.29,0,0,1-.29.3.37.37,0,0,1-.2-.07.28.28,0,0,1-.11-.23.86.86,0,0,0-.63.42,1.73,1.73,0,0,0-.23.95v1.31h.81v.46Z"/><path class="cls-6" d="M74.21,51.16a1.92,1.92,0,0,1,.46-1.35,1.73,1.73,0,0,1,2.45,0,1.91,1.91,0,0,1,.46,1.34,1.81,1.81,0,0,1-.46,1.32,1.78,1.78,0,0,1-2.45,0A1.81,1.81,0,0,1,74.21,51.16Zm.58-.09c0,.94.36,1.41,1.1,1.41h0c.73,0,1.1-.47,1.1-1.4s-.37-1.32-1.1-1.32S74.79,50.2,74.79,51.07Z"/><path class="cls-6" d="M78,52.92v-.46h.65V50.1a.18.18,0,0,0-.09-.18,1.58,1.58,0,0,0-.44,0H78v-.46l1.13-.1v.54a1.13,1.13,0,0,1,.94-.53.63.63,0,0,1,.4.12.41.41,0,0,1,.16.33.26.26,0,0,1-.09.21.29.29,0,0,1-.21.09.4.4,0,0,1-.2-.07.28.28,0,0,1-.1-.23.9.9,0,0,0-.64.42,1.74,1.74,0,0,0-.22.95v1.31H80v.46Z"/><path class="cls-6" d="M150.72,117.3l5.88,4.5-6.84,2.88a.38.38,0,0,1-.48-.24.44.44,0,0,1,.24-.48l6.18-2.58-.06.6-5.34-4.14a.34.34,0,0,1,.42-.54m3.54,3.84,1.68.18-.12.72-1.68-.18Zm-8-1,5.82.72-.12.72-5.76-.72ZM138.36,119l5.76.78-.12.72-5.76-.78Zm-8-1,5.76.78-.06.72-5.82-.78Zm-8-1,5.82.72-.12.72-5.76-.72Zm-7.92-1,5.76.72-.06.72-5.82-.72Zm-8-1,5.82.72-.12.72-5.76-.72Zm-8-1.08,5.82.78-.12.72-5.76-.78Zm-7.92-1,5.76.78-.06.72-5.82-.78Z"/><path d="M9.17,115.46a2.71,2.71,0,0,1,2.22-.36,3.15,3.15,0,0,1,1.83,1.5,2.68,2.68,0,0,1,.37,1.91,5.14,5.14,0,0,1,.7,0,.27.27,0,0,1,.18.1c0,.09,0,.16-.08.23l-1.53.93a.2.2,0,0,1-.16,0,.19.19,0,0,1-.1-.1s0,0,0,0v0l-.13-.2a.16.16,0,0,1,0-.1.11.11,0,0,1,.05-.08.41.41,0,0,0,.14-.12,1.54,1.54,0,0,0,.18-.23,1.86,1.86,0,0,0,.29-.82,1.54,1.54,0,0,0-.26-1,3.83,3.83,0,0,0-.61-.75,2.56,2.56,0,0,0-.76-.48,1.77,1.77,0,0,0-.89-.1,2.5,2.5,0,0,0-1,.36,2.56,2.56,0,0,0-.71.62,1.81,1.81,0,0,0-.34.7,1.92,1.92,0,0,0,0,.72,2.91,2.91,0,0,0,.17.69,3.59,3.59,0,0,0,.31.62,1.91,1.91,0,0,0,.88.79,1.26,1.26,0,0,0,1.06,0,.34.34,0,0,1,.18-.05s.07.05.12.12l.1.17a.21.21,0,0,1,0,.15s0,.07-.1.11a1.72,1.72,0,0,1-1.47.08,2.67,2.67,0,0,1-1.47-1.26,3.61,3.61,0,0,1-.39-.85,3.53,3.53,0,0,1-.15-.9,2.84,2.84,0,0,1,.13-.88,2.37,2.37,0,0,1,.46-.81A3.11,3.11,0,0,1,9.17,115.46Z"/><path d="M11.15,121.88a.79.79,0,0,1,.62-.1,1.39,1.39,0,0,1,.65.35,4.11,4.11,0,0,1,.58.6,6.58,6.58,0,0,1,.51.72l.16-.09a.65.65,0,0,0,.35-.6,1.57,1.57,0,0,0-.25-.66l0,0a3.75,3.75,0,0,0-.24-.36.41.41,0,0,1-.36.06.4.4,0,0,1-.23-.17.44.44,0,0,1-.05-.3.42.42,0,0,1,.2-.26q.55-.33,1.23.78a3.74,3.74,0,0,1,.23.44,2.06,2.06,0,0,1,.13.46,1.43,1.43,0,0,1,0,.46,1.09,1.09,0,0,1-.19.43,1.4,1.4,0,0,1-.42.37l-1.43.88a.18.18,0,0,0-.1.18,1.41,1.41,0,0,0,.19.41.24.24,0,0,1,0,.17s0,.1-.12.14l-.12.07a.28.28,0,0,1-.19.06.32.32,0,0,1-.13-.13l-.12-.19a1.71,1.71,0,0,1-.29-.7.54.54,0,0,1,.17-.4,2.36,2.36,0,0,1-1.26-1.08.94.94,0,0,1-.15-.64,1.21,1.21,0,0,1,.22-.54A1.28,1.28,0,0,1,11.15,121.88Zm.4.62a.51.51,0,0,0-.23.38.83.83,0,0,0,.15.61,2.35,2.35,0,0,0,.19.25,1.49,1.49,0,0,0,.26.22.59.59,0,0,0,.33.13.62.62,0,0,0,.37-.09l.51-.31a5,5,0,0,0-.56-.75,1.7,1.7,0,0,0-.45-.38.75.75,0,0,0-.33-.11A.39.39,0,0,0,11.55,122.5Z"/><path d="M12.54,126.3l.51-.32.31.51,1.9-1.16q.18-.1.18-.21a1,1,0,0,0-.19-.4l0-.06.51-.31.75,1.06-.54.33a1.66,1.66,0,0,1,1.24.81,2.34,2.34,0,0,1,.23.49.9.9,0,0,1,0,.39,1.2,1.2,0,0,1-.07.26,2,2,0,0,1-.14.22,1.68,1.68,0,0,1,1.28.83,1.54,1.54,0,0,1,.23.54,1.07,1.07,0,0,1,0,.43.84.84,0,0,1-.17.34,1.37,1.37,0,0,1-.25.24l-.29.19-1.64,1,.32.51-.52.32-1-1.65.52-.32.31.51,1.63-1a.76.76,0,0,0,.37-.42,1,1,0,0,0-.2-.67,1.06,1.06,0,0,0-.57-.45,1.09,1.09,0,0,0-.88.19l-1.3.8.32.51-.52.31-1-1.65.52-.31.31.51,1.63-1a.73.73,0,0,0,.36-.41.93.93,0,0,0-.2-.68,1,1,0,0,0-.57-.46,1.09,1.09,0,0,0-.87.2l-1.3.79.31.51-.51.32Z"/><path d="M18.13,131.77a2,2,0,0,1,2.93,1.42,1.19,1.19,0,0,1-.09.66,1.89,1.89,0,0,1-.34.51,2.59,2.59,0,0,1-.48.38.24.24,0,0,1-.18,0s-.09,0-.14-.12l-1.34-2.2-.13.1-.16.15a1.27,1.27,0,0,0-.16.2,2,2,0,0,0-.1.27.76.76,0,0,0-.05.33,1.29,1.29,0,0,0,.08.39,2.13,2.13,0,0,0,.22.46.72.72,0,0,0,.33.32.77.77,0,0,0,.36.07h.2s.08.05.12.12l0,.06c.1.16.1.27,0,.33a.84.84,0,0,1-.28.06,2.57,2.57,0,0,1-.45,0A1.49,1.49,0,0,1,18,135a1.68,1.68,0,0,1-.48-.51,2.11,2.11,0,0,1-.31-1.52A1.84,1.84,0,0,1,18.13,131.77Zm.81.47L20,134a.91.91,0,0,0,.23-1.3A1,1,0,0,0,18.94,132.24Z"/><path d="M18.68,136.34l.51-.31.31.51,1.9-1.16c.12-.07.17-.14.17-.21a1.06,1.06,0,0,0-.18-.4l0-.06.51-.32.74,1-.3.19-.23.15a1.25,1.25,0,0,1,1.09.57h0a.75.75,0,0,1,.11.5.5.5,0,0,1-.25.4.38.38,0,0,1-.31,0,.39.39,0,0,1-.24-.18.38.38,0,0,1,.11-.53,1.09,1.09,0,0,0-.75-.34,1.63,1.63,0,0,0-.92.28l-.07.05-.07.05-.89.54.39.64-.52.31Z"/><path d="M21.54,138.88a.81.81,0,0,1,.63-.1,1.54,1.54,0,0,1,.65.35,5.48,5.48,0,0,1,.58.6,8.26,8.26,0,0,1,.5.72l.16-.09a.65.65,0,0,0,.35-.6,1.44,1.44,0,0,0-.25-.66l0,0a3.87,3.87,0,0,0-.24-.37.42.42,0,0,1-.59-.11.39.39,0,0,1,0-.3.41.41,0,0,1,.19-.26q.55-.33,1.23.78a2.67,2.67,0,0,1,.23.44,1.74,1.74,0,0,1,.13.46,1.43,1.43,0,0,1,0,.46,1.09,1.09,0,0,1-.19.43,1.4,1.4,0,0,1-.42.37l-1.43.88a.19.19,0,0,0-.1.18,1.76,1.76,0,0,0,.19.41.35.35,0,0,1,.06.17.22.22,0,0,1-.13.14l-.12.07a.22.22,0,0,1-.18.06s-.09-.06-.14-.13l-.12-.19a1.65,1.65,0,0,1-.28-.7.5.5,0,0,1,.16-.4,2.32,2.32,0,0,1-1.26-1.08.88.88,0,0,1-.14-.64,1.1,1.1,0,0,1,.21-.53A1.3,1.3,0,0,1,21.54,138.88Zm.4.62a.54.54,0,0,0-.23.38.89.89,0,0,0,.16.61,1.44,1.44,0,0,0,.18.25,2,2,0,0,0,.26.22.59.59,0,0,0,.34.13A.61.61,0,0,0,23,141l.51-.31a5.86,5.86,0,0,0-.55-.75,1.71,1.71,0,0,0-.46-.38.75.75,0,0,0-.33-.11A.39.39,0,0,0,21.94,139.5Z"/><path d="M24.53,145.92l.51-.32.32.51L27.25,145c.11-.07.17-.14.17-.21s-.05-.19-.17-.39l0-.05.51-.32.75,1.06-2.75,1.68.28.45-.51.32ZM29,143.56a.55.55,0,0,1,.4-.06.52.52,0,0,1,.33.23.51.51,0,0,1,.07.4.55.55,0,0,1-.25.33.48.48,0,0,1-.4.06.52.52,0,0,1-.33-.23.5.5,0,0,1-.06-.41A.55.55,0,0,1,29,143.56Z"/><path d="M25.88,148.13l.52-.32.31.51,1.89-1.15c.12-.08.18-.15.18-.22a1,1,0,0,0-.18-.39l0-.07.51-.31.75,1.06-.53.33a1.66,1.66,0,0,1,1.23.81,2.1,2.1,0,0,1,.23.49.92.92,0,0,1,0,.39,1,1,0,0,1-.08.26,1.27,1.27,0,0,1-.13.22,1.7,1.7,0,0,1,1.28.83,1.75,1.75,0,0,1,.23.54,1.05,1.05,0,0,1,0,.43.73.73,0,0,1-.17.34,1.79,1.79,0,0,1-.24.24l-.3.19-1.63,1,.31.51-.51.32-1-1.65.51-.32.31.51,1.63-1a.82.82,0,0,0,.38-.42,1,1,0,0,0-.21-.67,1,1,0,0,0-.57-.45,1.07,1.07,0,0,0-.87.19l-1.3.8.31.51-.51.31-1-1.65.51-.31.31.51,1.63-1a.79.79,0,0,0,.37-.41,1,1,0,0,0-.2-.68,1,1,0,0,0-.57-.46,1.11,1.11,0,0,0-.88.2l-1.3.79.31.51-.51.32Z"/><path d="M30.86,154.12a.79.79,0,0,1,.62-.1,1.49,1.49,0,0,1,.65.35,5.65,5.65,0,0,1,1.09,1.32l.16-.09a.67.67,0,0,0,.35-.6,1.57,1.57,0,0,0-.25-.66l0,0c-.07-.12-.15-.24-.24-.37a.46.46,0,0,1-.36.07.47.47,0,0,1-.23-.18.39.39,0,0,1-.05-.3.38.38,0,0,1,.2-.25c.37-.23.78,0,1.23.77a3.74,3.74,0,0,1,.23.44,2.42,2.42,0,0,1,.13.46,1.43,1.43,0,0,1,0,.46,1.09,1.09,0,0,1-.19.43,1.51,1.51,0,0,1-.42.37l-1.43.88a.18.18,0,0,0-.1.18,1.41,1.41,0,0,0,.19.41.26.26,0,0,1,0,.17s0,.1-.12.14l-.12.08c-.08,0-.14.07-.19,0a.27.27,0,0,1-.13-.13l-.12-.19a1.71,1.71,0,0,1-.29-.7.56.56,0,0,1,.17-.4,2.29,2.29,0,0,1-1.26-1.08.94.94,0,0,1-.15-.64,1.11,1.11,0,0,1,.22-.53A1.32,1.32,0,0,1,30.86,154.12Zm.4.62a.51.51,0,0,0-.23.38.82.82,0,0,0,.15.61,2.35,2.35,0,0,0,.19.25,1.36,1.36,0,0,0,.25.22.65.65,0,0,0,.34.13.62.62,0,0,0,.37-.09l.5-.31a4.9,4.9,0,0,0-.55-.74,1.74,1.74,0,0,0-.45-.39.91.91,0,0,0-.33-.11A.36.36,0,0,0,31.26,154.74Z"/><path d="M31.75,158.7a.88.88,0,0,1,1,.05,1.14,1.14,0,0,1,.42-.47,1.16,1.16,0,0,1,.66-.16,1.3,1.3,0,0,1,.6-.73,1.27,1.27,0,0,1,1-.16,1.52,1.52,0,0,1,.9.74,1.79,1.79,0,0,1,.27.94,1.52,1.52,0,0,1,.72.6.61.61,0,0,1,.1.43.42.42,0,0,1-.21.32.33.33,0,0,1-.27.05.37.37,0,0,1-.22-.16.38.38,0,0,1,0-.42l-.26-.37a1.46,1.46,0,0,1-.55.6,1.27,1.27,0,0,1-1.06.17,1.58,1.58,0,0,1-.9-.73,1.93,1.93,0,0,1-.27-.89.85.85,0,0,0-.22.09.42.42,0,0,0-.2.29.54.54,0,0,0,.09.37l.45.73c.1.18.19.33.25.46a3.69,3.69,0,0,1,.2.5,1.15,1.15,0,0,1,0,.58,1.07,1.07,0,0,1-.27.5,1.16,1.16,0,0,1-.21.16.7.7,0,0,1-.36.11,1.24,1.24,0,0,1-.46-.09,1.7,1.7,0,0,1-.57-.39,4.29,4.29,0,0,1-.62-.81,2.76,2.76,0,0,1-.53-1.51A.94.94,0,0,1,31.75,158.7Zm.36.57a.48.48,0,0,0-.16.52,2.59,2.59,0,0,0,.37.91h0a3.24,3.24,0,0,0,.53.69,1.13,1.13,0,0,0,.41.26.42.42,0,0,0,.26,0c.27-.17.18-.62-.27-1.36l-.4-.64a.86.86,0,0,0-.38-.38A.47.47,0,0,0,32.11,159.27Zm2.7-1.27a.79.79,0,1,0,1.11.25A.72.72,0,0,0,34.81,158Z"/><path d="M36.21,161.36a1.93,1.93,0,0,1,1.47-.28,1.88,1.88,0,0,1,1.18.91,2,2,0,0,1,.29.78,1.14,1.14,0,0,1-.1.67,2,2,0,0,1-.34.51,2.59,2.59,0,0,1-.48.38.28.28,0,0,1-.18,0,.36.36,0,0,1-.13-.12l-1.35-2.2-.13.1-.15.14a.9.9,0,0,0-.16.21,1.35,1.35,0,0,0-.11.26,1,1,0,0,0-.05.33,1.69,1.69,0,0,0,.08.39,2.81,2.81,0,0,0,.22.47.8.8,0,0,0,.33.31.85.85,0,0,0,.37.08h.19a.31.31,0,0,1,.12.13l0,.06c.1.16.11.27,0,.32a.51.51,0,0,1-.28.06,1.87,1.87,0,0,1-.45,0,1.37,1.37,0,0,1-.53-.24,1.81,1.81,0,0,1-.47-.52,2.09,2.09,0,0,1-.32-1.51A1.85,1.85,0,0,1,36.21,161.36Zm.82.47,1.09,1.78a.92.92,0,0,0,.23-1.3A1,1,0,0,0,37,161.83Z"/><path d="M37.54,169l.32.51,3.25-2a.24.24,0,0,0,.14-.2,1.16,1.16,0,0,0-.17-.37l0-.08.55-.34.73,1.1-.35.22a3.55,3.55,0,0,1,1.28,1.3,1.2,1.2,0,0,1,.09,1.16,2.38,2.38,0,0,1-1,1,1.93,1.93,0,0,1-1.51.33,1.67,1.67,0,0,1-1-.79,2.38,2.38,0,0,1-.35-1.48l-1.19.73.31.51L38,171l-1-1.65Zm2.72-.09a.77.77,0,0,0-.31.57,1.09,1.09,0,0,0,.16.8,1.25,1.25,0,0,0,.78.6,1.32,1.32,0,0,0,1-.19,1.31,1.31,0,0,0,.63-.78,1.16,1.16,0,0,0-.16-.93,1.59,1.59,0,0,0-.52-.54,1,1,0,0,0-.48-.18.32.32,0,0,0-.16.06Z"/><path d="M41.06,173l.52-.31.31.52,3.41-2.09a.24.24,0,0,0,.14-.2,1,1,0,0,0-.17-.38l-.05-.08.51-.31.77,1.08-4.23,2.59.31.51-.51.31Z"/><path d="M43.37,174.59a.79.79,0,0,1,.62-.1,1.52,1.52,0,0,1,.66.35,6.43,6.43,0,0,1,.57.6,5.87,5.87,0,0,1,.51.73l.16-.1a.65.65,0,0,0,.35-.6,1.44,1.44,0,0,0-.25-.66l0,0c-.07-.12-.15-.24-.24-.37a.45.45,0,0,1-.36.07.47.47,0,0,1-.23-.18.4.4,0,0,1,.15-.55c.37-.23.78,0,1.23.77a2.67,2.67,0,0,1,.23.44,1.86,1.86,0,0,1,.13.46,1.43,1.43,0,0,1,0,.46,1.09,1.09,0,0,1-.19.43,1.42,1.42,0,0,1-.42.38l-1.43.87a.18.18,0,0,0-.1.18,1.59,1.59,0,0,0,.19.41.38.38,0,0,1,.06.17.25.25,0,0,1-.13.15l-.12.07c-.08,0-.14.07-.18,0s-.09-.06-.14-.13l-.12-.19a1.65,1.65,0,0,1-.28-.7.51.51,0,0,1,.16-.4,2.32,2.32,0,0,1-1.26-1.08.88.88,0,0,1-.14-.64,1.1,1.1,0,0,1,.21-.53A1.32,1.32,0,0,1,43.37,174.59Zm.4.62a.51.51,0,0,0-.23.38.87.87,0,0,0,.15.61,2.35,2.35,0,0,0,.19.25,1.43,1.43,0,0,0,.26.22.59.59,0,0,0,.34.13.61.61,0,0,0,.36-.09l.51-.31a5.69,5.69,0,0,0-.55-.74,1.75,1.75,0,0,0-.46-.39.91.91,0,0,0-.33-.11A.39.39,0,0,0,43.77,175.21Z"/><path d="M44.76,179l.51-.31.32.51,1.89-1.16q.18-.11.18-.21a1.06,1.06,0,0,0-.18-.4l0-.06.51-.32.75,1.06-.53.33a1.7,1.7,0,0,1,1.23.82,1.66,1.66,0,0,1,.23.55,1,1,0,0,1,0,.42.84.84,0,0,1-.17.34l-.25.24-.29.19-1.64,1,.31.51-.51.32-1-1.65.51-.32.32.51,1.62-1,.22-.15a.69.69,0,0,0,.13-.21.45.45,0,0,0,0-.31,1.89,1.89,0,0,0-.21-.44,1,1,0,0,0-.55-.43,1.06,1.06,0,0,0-.88.19l-1.3.8.31.51-.51.31Z"/><path d="M49,182.3a1.93,1.93,0,0,1,1.47-.28,1.88,1.88,0,0,1,1.18.91,2,2,0,0,1,.29.78,1.12,1.12,0,0,1-.1.67,2,2,0,0,1-.34.51,2.59,2.59,0,0,1-.48.38.28.28,0,0,1-.18,0,.36.36,0,0,1-.13-.12L49.37,183l-.13.1a1,1,0,0,0-.15.15.87.87,0,0,0-.16.2,1.35,1.35,0,0,0-.11.26,1,1,0,0,0,0,.33,1.69,1.69,0,0,0,.08.39,2.81,2.81,0,0,0,.22.47.91.91,0,0,0,.33.32,1,1,0,0,0,.37.07H50a.31.31,0,0,1,.12.13l0,.06c.1.16.11.27,0,.32a.51.51,0,0,1-.28.06,1.87,1.87,0,0,1-.45,0,1.37,1.37,0,0,1-.53-.24,1.81,1.81,0,0,1-.47-.52,2,2,0,0,1-.31-1.51A1.81,1.81,0,0,1,49,182.3Zm.82.47,1.09,1.78a.92.92,0,0,0,.23-1.3A1,1,0,0,0,49.83,182.77Z"/></g></g></svg>